<svg width="20" height="16" viewBox="0 0 20 16" fill="none" xmlns="http://www.w3.org/2000/svg">
<path d="M0.5 6.5V13.5C0.5 14.6046 1.39543 15.5 2.5 15.5H17.5C18.6046 15.5 19.5 14.6046 19.5 13.5V6.5" stroke="#FF3366"/>
<path d="M10.1464 9.85355C10.3417 10.0488 10.6583 10.0488 10.8536 9.85355L14.0355 6.67157C14.2308 6.47631 14.2308 6.15973 14.0355 5.96447C13.8403 5.7692 13.5237 5.7692 13.3284 5.96447L10.5 8.79289L7.67157 5.96447C7.47631 5.7692 7.15973 5.7692 6.96447 5.96447C6.7692 6.15973 6.7692 6.47631 6.96447 6.67157L10.1464 9.85355ZM10 0.5L10 9.5L11 9.5L11 0.5L10 0.5Z" fill="#FF3366"/>
</svg>
