<svg width="578" height="449" viewBox="0 0 578 449" fill="none" xmlns="http://www.w3.org/2000/svg">
<path d="M321.596 241.373C321.596 224.383 314.847 208.088 302.833 196.074C290.819 184.06 274.524 177.311 257.534 177.311C240.543 177.311 224.248 184.06 212.234 196.074C200.22 208.088 193.471 224.383 193.471 241.373L257.534 241.373H321.596Z" fill="#2C73FB"/>
<path d="M385.66 305.31C368.519 305.31 352.08 312.059 339.96 324.073C327.839 336.088 321.03 352.382 321.03 369.373C321.03 386.363 327.839 402.658 339.96 414.672C352.08 426.686 368.519 433.436 385.66 433.436L385.66 369.373L385.66 305.31Z" fill="#88ABEF"/>
<path d="M385.661 305.436C402.651 305.436 418.946 298.687 430.96 286.673C442.974 274.659 449.724 258.364 449.724 241.373C449.724 224.383 442.974 208.088 430.96 196.074C418.946 184.06 402.651 177.311 385.661 177.311L385.661 241.373L385.661 305.436Z" fill="#F4E4E4"/>
<path d="M321.03 305.438C321.03 288.447 314.311 272.153 302.35 260.139C290.389 248.124 274.166 241.375 257.251 241.375C240.335 241.375 224.112 248.124 212.151 260.139C200.19 272.153 193.471 288.447 193.471 305.438L257.251 305.438H321.03Z" fill="#E4ECF4"/>
<path d="M192.904 113.408C192.904 130.356 199.653 146.61 211.667 158.594C223.681 170.578 239.976 177.311 256.966 177.311C273.957 177.311 290.252 170.578 302.266 158.594C314.28 146.61 321.029 130.356 321.029 113.408L256.966 113.408L192.904 113.408Z" fill="#F4E4E4"/>
<path d="M321.031 49.6266C321.031 66.6171 327.78 82.9118 339.794 94.9259C351.808 106.94 368.103 113.689 385.093 113.689C402.084 113.689 418.379 106.94 430.393 94.9259C442.407 82.9118 449.156 66.6171 449.156 49.6266L385.093 49.6266L321.031 49.6266Z" fill="#E4ECF4"/>
<path d="M385.662 369.373C385.662 386.363 392.411 402.658 404.425 414.672C416.44 426.686 432.734 433.436 449.725 433.436C466.715 433.436 483.01 426.686 495.024 414.672C507.038 402.658 513.788 386.363 513.788 369.373L449.725 369.373L385.662 369.373Z" fill="#E4ECF4"/>
<path d="M321.03 113.36C321.03 96.3692 314.281 80.0746 302.266 68.0604C290.252 56.0463 273.958 49.2969 256.967 49.2969C239.977 49.2969 223.682 56.0463 211.668 68.0604C199.654 80.0746 192.904 96.3692 192.904 113.36L256.967 113.36L321.03 113.36Z" fill="#FF3366"/>
<path d="M193.47 177.526C193.47 160.593 186.721 144.353 174.707 132.379C162.693 120.405 146.398 113.679 129.408 113.679C112.417 113.679 96.1224 120.405 84.1083 132.379C72.0942 144.353 65.3447 160.593 65.3447 177.526L129.408 177.526L193.47 177.526Z" fill="#E4ECF4"/>
<path d="M129.408 241.375C129.408 249.787 131.065 258.118 134.284 265.89C137.504 273.663 142.223 280.725 148.172 286.674C154.12 292.623 161.183 297.342 168.955 300.561C176.728 303.78 185.058 305.437 193.471 305.437L193.471 241.375L129.408 241.375Z" fill="#88ABEF"/>
<path d="M192.904 113.36C192.904 104.947 191.247 96.6164 188.028 88.8439C184.808 81.0715 180.089 74.0092 174.14 68.0604C168.192 62.1117 161.129 57.3928 153.357 54.1734C145.584 50.9539 137.254 49.2969 128.841 49.2969V113.36H192.904Z" fill="#F4E4E4"/>
<path d="M513.786 113.36C513.786 104.947 512.129 96.6164 508.91 88.8439C505.69 81.0715 500.972 74.0092 495.023 68.0604C489.074 62.1117 482.012 57.3928 474.239 54.1734C466.467 50.9539 458.136 49.2969 449.723 49.2969V113.36H513.786Z" fill="#2C73FB"/>
<path d="M449.725 242.446C449.725 250.859 451.382 259.189 454.601 266.962C457.821 274.734 462.54 281.796 468.488 287.745C474.437 293.694 481.499 298.413 489.272 301.632C497.044 304.852 505.375 306.509 513.788 306.509L513.788 242.446L449.725 242.446Z" fill="#F4E4E4"/>
<path d="M321.03 113.25C321.03 121.662 322.702 129.993 325.95 137.765C329.198 145.538 333.958 152.6 339.96 158.549C345.961 164.498 353.086 169.217 360.927 172.436C368.768 175.655 377.172 177.312 385.66 177.312L385.66 113.25L321.03 113.25Z" fill="#88ABEF"/>
<path d="M385.66 113.752C385.66 122.231 387.317 130.627 390.537 138.46C393.756 146.294 398.475 153.412 404.424 159.407C410.373 165.403 417.435 170.159 425.207 173.404C432.98 176.648 441.31 178.318 449.723 178.318L449.723 113.752L385.66 113.752Z" fill="#E4ECF4"/>
<path d="M385.66 304.807C385.66 313.286 387.317 321.682 390.537 329.515C393.756 337.349 398.475 344.466 404.424 350.462C410.373 356.458 417.435 361.213 425.207 364.458C432.98 367.703 441.31 369.373 449.723 369.373L449.723 304.807L385.66 304.807Z" fill="#E4ECF4"/>
<path d="M449.725 178.318C449.725 186.731 451.382 195.061 454.601 202.834C457.821 210.606 462.54 217.668 468.488 223.617C474.437 229.566 481.499 234.285 489.272 237.504C497.044 240.724 505.375 242.381 513.788 242.381L513.788 178.318L449.725 178.318Z" fill="#E4ECF4"/>
<path d="M128.275 113.36C128.275 104.947 126.618 96.6164 123.399 88.8439C120.179 81.0715 115.46 74.0092 109.512 68.0604C103.563 62.1117 96.5005 57.3928 88.7281 54.1734C80.9556 50.9539 72.6251 49.2969 64.2123 49.2969L64.2123 113.36H128.275Z" fill="#E4ECF4"/>
<path d="M385.661 177.312C377.248 177.312 368.917 178.969 361.145 182.188C353.372 185.408 346.31 190.127 340.361 196.075C334.412 202.024 329.694 209.086 326.474 216.859C323.255 224.631 321.598 232.962 321.598 241.375L385.661 241.375L385.661 177.312Z" fill="#FF3366"/>
<path d="M178.959 178.283L65.4111 242.022H296.813L382.646 178.283H178.959Z" stroke="black" stroke-width="2"/>
<path d="M178.959 242.022L65.4111 305.762H296.813L382.646 242.022H178.959Z" stroke="black" stroke-width="2"/>
<path d="M178.959 305.762L65.4111 369.501H296.813L382.646 305.762H178.959Z" stroke="black" stroke-width="2"/>
<path d="M126.843 355.664H203.54L223.014 344.275H147.699L126.843 355.664Z" fill="#2C73FB"/>
<path d="M127.422 225.524H203.886" stroke="black" stroke-width="2"/>
<path d="M155.238 337.631H231.703" stroke="black" stroke-width="2"/>
<path d="M147.564 214.193H224.029" stroke="black" stroke-width="2"/>
</svg>
