<svg width="646" height="373" viewBox="0 0 646 373" fill="none" xmlns="http://www.w3.org/2000/svg">
<path d="M189.061 328.315L223.542 327.905L223.952 341.823L194.584 341.982L189.061 328.315Z" fill="white"/>
<rect x="451.706" y="337.866" width="72.5951" height="3.98315" fill="white"/>
<path d="M81.0849 296.257C79.1184 282.794 89.5562 270.721 103.162 270.721C116.648 270.721 127.052 282.593 125.281 295.962L121.597 323.767C120.385 332.918 112.582 339.756 103.351 339.756C94.2133 339.756 86.4593 333.052 85.1386 324.01L81.0849 296.257Z" fill="#47DB99" stroke="black" stroke-width="2"/>
<path d="M125.064 330.112L118.79 363.047L87.1737 363.047L80.9003 330.112L125.064 330.112Z" fill="white" stroke="black" stroke-width="2"/>
<path d="M102.4 270.303C89.008 277.872 88.4258 285.441 88.4258 294.175C88.4258 301.178 90.9489 316.301 91.9194 323.87" stroke="black" stroke-width="2"/>
<path d="M104.147 270.303C117.539 277.872 118.121 285.441 118.121 294.175C118.121 301.178 115.598 316.301 114.628 323.87" stroke="black" stroke-width="2"/>
<path d="M118.12 294.758L120.449 294.176M115.791 281.948H113.462M103.564 285.442L105.311 284.277M101.235 298.251L103.564 299.416M104.146 314.555L105.893 313.972M90.172 312.808L91.9187 311.643M88.4252 299.416L86.0962 298.251M90.172 282.53L91.9187 283.113" stroke="black" stroke-width="2"/>
<path d="M102.981 270.303L103.563 323.87" stroke="black" stroke-width="2"/>
<path d="M82.0204 318.048H83.7671M78.5269 292.429H80.2736M87.8429 273.797L89.0074 274.961M118.702 276.126L120.449 274.961M125.107 300.581L127.436 301.163M125.107 316.884L122.778 318.048M116.956 308.732L114.044 309.897" stroke="black" stroke-width="2"/>
<rect x="129.93" y="332.672" width="53.8965" height="8.38274" transform="rotate(180 129.93 332.672)" fill="white" stroke="black" stroke-width="2"/>
<path d="M623.215 92.6904L623.215 95.2718L606.007 95.2718L606.007 92.6904L623.215 92.6904Z" fill="#E4ECF4"/>
<path d="M623.215 99.5752L623.215 102.157L606.007 102.157L606.007 99.5752L623.215 99.5752Z" fill="#E4ECF4"/>
<path d="M623.215 106.434L623.215 109.015L606.007 109.015L606.007 106.434L623.215 106.434Z" fill="#E4ECF4"/>
<path d="M623.215 112.942L623.215 115.524L606.007 115.524L606.007 112.942L623.215 112.942Z" fill="#E4ECF4"/>
<path d="M606.007 133.114H623.215V150.323H606.007V133.114Z" fill="#E4ECF4"/>
<path d="M597.404 141.72H614.612V158.929H597.404V141.72Z" fill="#47DB99"/>
<path d="M570.71 91.4004L570.71 93.9818L553.503 93.9818L553.503 91.4004L570.71 91.4004Z" fill="#E4ECF4"/>
<path d="M570.71 98.2842L570.71 100.866L553.503 100.866L553.503 98.2842L570.71 98.2842Z" fill="#E4ECF4"/>
<path d="M570.71 105.144L570.71 107.725L553.503 107.725L553.503 105.144L570.71 105.144Z" fill="#E4ECF4"/>
<path d="M570.71 111.652L570.71 114.234L553.503 114.234L553.503 111.652L570.71 111.652Z" fill="#E4ECF4"/>
<path d="M570.71 118.886L570.71 121.467L553.503 121.467L553.503 118.886L570.71 118.886Z" fill="#E4ECF4"/>
<path d="M570.71 125.396L570.71 127.977L553.503 127.977L553.503 125.396L570.71 125.396Z" fill="#E4ECF4"/>
<path d="M570.71 131.904L570.71 134.486L553.503 134.486L553.503 131.904L570.71 131.904Z" fill="#E4ECF4"/>
<path d="M570.71 139.138L570.71 141.719L553.503 141.719L553.503 139.138L570.71 139.138Z" fill="#E4ECF4"/>
<path d="M226.406 217.688C226.406 150.808 280.602 96.6172 347.423 96.6172C414.245 96.6172 468.441 150.808 468.441 217.688C468.441 256.032 450.652 290.244 422.72 312.481H272.126C244.194 290.244 226.406 256.032 226.406 217.688Z" stroke="#E4ECF4" stroke-width="100"/>
<path d="M481.109 260.165L442.704 362.815H353.467L410.098 245.435C425.489 245.401 457.785 245.353 463.836 245.435C471.4 245.538 474.562 244.818 479.303 249.247C483.096 252.79 482.088 258.002 481.109 260.165Z" fill="black"/>
<path fill-rule="evenodd" clip-rule="evenodd" d="M410.847 246.627C426.519 246.592 457.877 246.547 463.82 246.628C464.939 246.643 465.942 246.642 466.855 246.64C469.133 246.637 470.855 246.634 472.433 246.896C474.501 247.239 476.268 248.044 478.489 250.119C480.111 251.633 480.717 253.503 480.805 255.283C480.894 257.089 480.443 258.745 480.023 259.674L480.006 259.711L441.877 361.624H355.366L410.847 246.627ZM463.852 244.244C457.789 244.161 425.479 244.209 410.095 244.244L409.348 244.245L351.568 364.008H443.531L482.212 260.619C482.764 259.382 483.295 257.37 483.186 255.165C483.075 252.914 482.289 250.405 480.117 248.376C477.597 246.022 475.412 244.973 472.823 244.543C471.036 244.247 469.024 244.25 466.645 244.254C465.767 244.256 464.838 244.257 463.852 244.244Z" fill="black"/>
<path d="M392.789 245.317C392.789 248.469 384.615 251.025 374.533 251.025C364.45 251.025 356.276 248.469 356.276 245.317C356.276 242.164 364.45 239.608 374.533 239.608C384.615 239.608 392.789 242.164 392.789 245.317Z" fill="white"/>
<path fill-rule="evenodd" clip-rule="evenodd" d="M390.434 245.14C390.434 245.14 390.433 245.144 390.428 245.152C390.431 245.144 390.433 245.14 390.434 245.14ZM390.295 245.317C390.22 245.239 390.106 245.137 389.937 245.012C389.311 244.549 388.252 244.032 386.73 243.556C383.714 242.613 379.401 241.993 374.533 241.993C369.664 241.993 365.351 242.613 362.335 243.556C360.813 244.032 359.755 244.549 359.129 245.012C358.959 245.137 358.846 245.239 358.77 245.317C358.846 245.394 358.959 245.496 359.129 245.621C359.755 246.084 360.813 246.601 362.335 247.077C365.351 248.02 369.664 248.64 374.533 248.64C379.401 248.64 383.714 248.02 386.73 247.077C388.252 246.601 389.311 246.084 389.937 245.621C390.106 245.496 390.22 245.394 390.295 245.317ZM358.632 245.14C358.632 245.14 358.634 245.144 358.637 245.152C358.633 245.144 358.631 245.14 358.632 245.14ZM358.632 245.493C358.631 245.493 358.633 245.489 358.637 245.481C358.634 245.489 358.632 245.493 358.632 245.493ZM390.428 245.481C390.433 245.489 390.434 245.493 390.434 245.493C390.433 245.493 390.431 245.489 390.428 245.481ZM374.533 251.025C384.615 251.025 392.789 248.469 392.789 245.317C392.789 242.164 384.615 239.608 374.533 239.608C364.45 239.608 356.276 242.164 356.276 245.317C356.276 248.469 364.45 251.025 374.533 251.025Z" fill="black"/>
<path d="M335.195 236.58C349.047 237.994 359.118 249.798 357.869 262.901L316.892 355.918L276.568 352.407L312.773 247.82C317.712 240.333 325.412 235.581 335.195 236.58Z" fill="white" stroke="black" stroke-width="2"/>
<path d="M384.396 245.191V211.624L354.104 214.771V245.191H384.396Z" fill="white" stroke="black" stroke-width="2"/>
<path fill-rule="evenodd" clip-rule="evenodd" d="M336.504 145.218C341.063 138.588 348.331 134.687 356.64 133.146C369.213 130.814 378.214 132.506 384.575 136.756C390.944 141.012 394.511 147.728 396.405 155.087C399.794 168.259 397.901 183.845 396.896 192.113C395.672 202.196 391.369 210.143 382.698 214.813C375.462 218.71 366.509 219.872 358.493 218.46C354.47 217.751 351.182 216.435 348.431 214.345C345.677 212.253 343.517 209.428 341.692 205.791C338.072 198.574 335.701 187.992 332.655 173.204C330.169 161.137 331.932 151.867 336.504 145.218Z" fill="white" stroke="black" stroke-width="2" stroke-linecap="round"/>
<path d="M367.319 132.056C407.56 133.38 404.447 177.149 400.33 190.793C398.094 201.101 392.094 207.514 390.584 209.617C383.987 208.789 387.175 190.215 391.269 190.779C395.556 190.786 397.463 181.016 395.536 177.382C393.995 174.474 389.646 176.95 388.318 178.411C385.163 136.284 329.579 138.716 330.862 165.595C330.862 165.595 327.462 130.746 367.319 132.056Z" fill="black"/>
<path d="M361.706 136.651C362.262 135.067 363.886 134.257 366.532 133.237C369.173 132.218 375.812 131.989 381.463 135.014C387.315 138.147 390.259 140.5 394.524 141.779C398.79 143.059 401.755 141.993 400.901 137.908C399.82 132.742 392.723 132.284 394.565 137.483" stroke="black" stroke-width="2" stroke-linecap="round"/>
<path d="M354.923 211.624H383.578V234.548H354.923V211.624Z" fill="white"/>
<path d="M362.267 160.842L331.18 166.896L331.947 155.899L337.289 144.173L387.672 142.853L386.493 169.051C386.493 169.051 383.868 161.662 379.218 160.169C374.569 158.676 367.384 160.169 367.384 160.169V153.243L362.267 160.842Z" fill="black"/>
<path d="M381.934 140.124C381.768 140.345 381.687 140.611 381.717 140.915C381.747 141.225 381.895 141.597 382.23 142.01C382.903 142.842 384.287 143.784 386.706 144.612C389.21 145.47 390.494 146.665 391.034 147.877C391.573 149.087 391.338 150.245 390.941 150.952" stroke="white" stroke-width="2" stroke-linecap="round"/>
<path d="M341.522 177.908C341.71 179.001 341.338 179.977 340.691 180.088C340.043 180.199 339.366 179.404 339.178 178.311C338.99 177.219 339.362 176.243 340.01 176.131C340.657 176.02 341.334 176.815 341.522 177.908Z" fill="black"/>
<path d="M362.806 174.985C362.994 176.078 362.622 177.054 361.975 177.165C361.328 177.277 360.651 176.481 360.463 175.389C360.275 174.296 360.647 173.32 361.294 173.208C361.941 173.097 362.618 173.893 362.806 174.985Z" fill="black"/>
<path d="M357.896 202.188C362.943 202.188 367.036 199.474 367.036 196.126" stroke="black" stroke-width="2" stroke-linecap="round"/>
<path d="M350.63 181.176L347.045 188.859L354.984 190.651" stroke="black" stroke-width="2" stroke-linecap="round"/>
<path d="M396.827 222.327C396.827 222.327 347.932 231.763 342.657 232.858C337.381 233.952 332.536 236.607 328.689 240.306C324.842 244.004 321.743 251.435 320.674 254.689L301.177 362.816L413.543 362.816C415.069 327.373 418.214 254.843 418.58 248.268C419.038 240.049 417.664 236.453 413.543 228.492C410.245 222.122 401.025 221.728 396.827 222.327Z" fill="black"/>
<path d="M334.505 254.472L347.423 252.976L346.573 260.79L333.655 262.286L334.505 254.472Z" fill="#C4C4C4"/>
<path d="M334.505 254.472L347.423 252.976L346.573 260.79L333.655 262.286L334.505 254.472Z" fill="white"/>
<path d="M329.999 254.995L334.505 254.473L333.655 262.287L329.148 262.809L329.999 254.995Z" fill="#FF4B78"/>
<path d="M330.973 256.938L333.076 256.695L332.679 260.342L330.576 260.585L330.973 256.938Z" fill="white"/>
<path d="M389.444 331.531L390.331 331.43V330.537V245.572C390.516 234.179 398.707 224.123 410.343 221.996C423.598 219.573 436.307 228.354 438.73 241.609C439.321 244.842 439.328 247.816 438.87 250.516L438.866 250.542L438.863 250.568L425.774 363.005L322.206 362.604V339.157L389.444 331.531Z" fill="white" stroke="black" stroke-width="2"/>
<path d="M361.65 351.807H189.185L192.602 362.814H361.65V351.807Z" fill="white" stroke="black" stroke-width="2"/>
<path d="M215.634 362.816L182.251 262.811H302.749L330.727 362.816H215.634Z" fill="white" stroke="black" stroke-width="2"/>
<path d="M263.406 307.465C267.152 312.311 266.756 318.472 263.069 321.323C259.381 324.174 253.318 323.006 249.572 318.16C245.826 313.315 246.222 307.153 249.91 304.302C253.597 301.452 259.66 302.619 263.406 307.465Z" stroke="black" stroke-width="2"/>
<path d="M25.0762 107.102C25.0762 99.6803 31.0924 93.6641 38.5138 93.6641H210.515C217.936 93.6641 223.953 99.6803 223.953 107.102V112.477H25.0762V107.102Z" fill="#2C73FB"/>
<path d="M222.952 229.728L26.0753 229.728L26.0753 113.477L222.952 113.477L222.952 229.728Z" fill="#E4ECF4" stroke="#2C73FB" stroke-width="2"/>
<rect width="63.8595" height="37.6607" transform="translate(55.0823 128.804)" fill="white"/>
<path fill-rule="evenodd" clip-rule="evenodd" d="M87.0001 138C87.7891 138 88.4287 138.64 88.4287 139.429V156.571C88.4287 157.36 87.7891 158 87.0001 158C86.2111 158 85.5715 157.36 85.5715 156.571V139.429C85.5715 138.64 86.2111 138 87.0001 138Z" fill="#2C73FB"/>
<path fill-rule="evenodd" clip-rule="evenodd" d="M97 148C97 148.789 96.3604 149.428 95.5714 149.428H78.4286C77.6396 149.428 77 148.789 77 148C77 147.211 77.6396 146.571 78.4286 146.571H95.5714C96.3604 146.571 97 147.211 97 148Z" fill="#2C73FB"/>
<path d="M43.8882 104.219C43.8882 105.703 42.685 106.906 41.2007 106.906C39.7164 106.906 38.5132 105.703 38.5132 104.219C38.5132 102.734 39.7164 101.531 41.2007 101.531C42.685 101.531 43.8882 102.734 43.8882 104.219Z" fill="white"/>
<path d="M55.813 104.219C55.813 105.703 54.6098 106.906 53.1255 106.906C51.6412 106.906 50.438 105.703 50.438 104.219C50.438 102.734 51.6412 101.531 53.1255 101.531C54.6098 101.531 55.813 102.734 55.813 104.219Z" fill="white"/>
<path d="M67.7369 104.219C67.7369 105.703 66.5336 106.906 65.0493 106.906C63.5651 106.906 62.3618 105.703 62.3618 104.219C62.3618 102.734 63.5651 101.531 65.0493 101.531C66.5336 101.531 67.7369 102.734 67.7369 104.219Z" fill="white"/>
<g clip-path="url(#clip0_1_12531)">
<rect width="64.5004" height="37.6253" transform="translate(130.404 128.472)" fill="white"/>
<path d="M144.448 148.994L125.029 166.097H200.279V158.767L178.432 139.222L156.585 161.21L144.448 148.994Z" fill="#2C73FB"/>
<path d="M148.874 139.222C148.874 140.706 147.671 141.909 146.187 141.909C144.702 141.909 143.499 140.706 143.499 139.222C143.499 137.737 144.702 136.534 146.187 136.534C147.671 136.534 148.874 137.737 148.874 139.222Z" fill="#2C73FB"/>
</g>
<g clip-path="url(#clip1_1_12531)">
<rect width="64.5004" height="37.6253" transform="translate(54.6917 177.927)" fill="white"/>
<path fill-rule="evenodd" clip-rule="evenodd" d="M62.7542 210.442L72.1806 203.443C73.4975 202.501 76.1783 200.617 78.8591 201.088C81.5869 201.559 84.2677 204.385 86.9485 206.034C89.6293 207.683 92.3101 208.154 94.9909 206.976C97.6717 205.799 100.4 202.972 103.08 202.265C105.761 201.559 108.442 202.972 111.123 204.621C113.804 206.27 116.484 208.154 119.212 207.447C121.893 206.741 124.574 203.443 125.891 201.794L127.255 200.146V212.865H125.891C124.574 212.865 121.893 212.865 119.212 212.865C116.484 212.865 113.804 212.865 111.123 212.865C108.442 212.865 105.761 212.865 103.08 212.865C100.4 212.865 97.6717 212.865 94.9909 212.865C92.3101 212.865 89.6293 212.865 86.9485 212.865C84.2677 212.865 81.5869 212.865 78.8591 212.865C76.1783 212.865 73.4975 212.865 72.1806 212.865H70.8167L62.7542 210.442Z" fill="#E4ECF4"/>
<path d="M63.3895 206.561C57.1349 206.561 51.4015 212.555 49.3167 215.552C82.0229 215.422 135.317 215.552 135.317 215.552C135.317 215.552 131.408 210.079 127.89 206.17C125.275 203.264 118.117 194.052 106.39 194.052C94.6624 194.052 85.2805 211.252 77.8532 211.252C70.4259 211.252 71.2077 206.561 63.3895 206.561Z" fill="#2C73FB"/>
</g>
<rect width="64.5004" height="37.6253" transform="translate(130.653 177.927)" fill="white"/>
<path d="M149.466 187.333C149.466 188.817 148.263 190.021 146.778 190.021C145.294 190.021 144.091 188.817 144.091 187.333C144.091 185.849 145.294 184.646 146.778 184.646C148.263 184.646 149.466 185.849 149.466 187.333Z" fill="#2C73FB"/>
<path fill-rule="evenodd" clip-rule="evenodd" d="M180.372 187.333C180.372 188.075 179.771 188.677 179.029 188.677H154.841C154.099 188.677 153.497 188.075 153.497 187.333C153.497 186.591 154.099 185.989 154.841 185.989H179.029C179.771 185.989 180.372 186.591 180.372 187.333Z" fill="#E4ECF4"/>
<path d="M149.466 196.739C149.466 198.224 148.263 199.427 146.778 199.427C145.294 199.427 144.091 198.224 144.091 196.739C144.091 195.255 145.294 194.052 146.778 194.052C148.263 194.052 149.466 195.255 149.466 196.739Z" fill="#47DB99"/>
<path fill-rule="evenodd" clip-rule="evenodd" d="M180.372 196.739C180.372 197.481 179.771 198.083 179.029 198.083H154.841C154.099 198.083 153.497 197.481 153.497 196.739C153.497 195.997 154.099 195.396 154.841 195.396H179.029C179.771 195.396 180.372 195.997 180.372 196.739Z" fill="#E4ECF4"/>
<path d="M149.466 206.146C149.466 207.63 148.263 208.833 146.778 208.833C145.294 208.833 144.091 207.63 144.091 206.146C144.091 204.661 145.294 203.458 146.778 203.458C148.263 203.458 149.466 204.661 149.466 206.146Z" fill="#FF3366"/>
<path fill-rule="evenodd" clip-rule="evenodd" d="M180.372 206.146C180.372 206.888 179.771 207.489 179.029 207.489H154.841C154.099 207.489 153.497 206.888 153.497 206.146C153.497 205.403 154.099 204.802 154.841 204.802H179.029C179.771 204.802 180.372 205.403 180.372 206.146Z" fill="#E4ECF4"/>
<path d="M538.425 13.8584C538.425 12.7538 539.32 11.8584 540.425 11.8584H619.884C620.989 11.8584 621.884 12.7538 621.884 13.8584V59.9343C621.884 61.0388 620.989 61.9343 619.884 61.9343H540.425C539.32 61.9343 538.425 61.0388 538.425 59.9343V13.8584Z" fill="#E4ECF4"/>
<path fill-rule="evenodd" clip-rule="evenodd" d="M538.425 48.2747L539.398 50.046C540.44 51.8174 542.386 55.3601 544.401 55.3601C546.347 55.3601 548.363 51.8174 550.309 51.3745C552.324 50.9317 554.339 53.5887 556.285 53.1459C558.301 52.7031 560.247 49.1604 562.262 49.6032C564.208 50.046 566.223 54.4744 568.239 53.1459C570.185 51.8174 572.2 44.732 574.146 42.075C576.161 39.4179 578.107 41.1893 580.123 44.732C582.138 48.2747 584.084 53.5887 586.099 56.2458C588.045 58.9028 590.061 58.9028 592.007 58.0171C594.022 57.1314 596.038 55.3601 597.983 51.8174C599.999 48.2747 601.945 42.9606 603.96 39.8608C605.906 36.7609 607.922 35.8752 609.937 38.5323C611.883 41.1893 613.898 47.389 615.844 50.046C617.86 52.7031 619.806 51.8174 620.848 51.3745L621.821 50.9317V61.5598H620.848C619.806 61.5598 617.86 61.5598 615.844 61.5598C613.898 61.5598 611.883 61.5598 609.937 61.5598C607.922 61.5598 605.906 61.5598 603.96 61.5598C601.945 61.5598 599.999 61.5598 597.983 61.5598C596.038 61.5598 594.022 61.5598 592.007 61.5598C590.061 61.5598 588.045 61.5598 586.099 61.5598C584.084 61.5598 582.138 61.5598 580.123 61.5598C578.107 61.5598 576.161 61.5598 574.146 61.5598C572.2 61.5598 570.185 61.5598 568.239 61.5598C566.223 61.5598 564.208 61.5598 562.262 61.5598C560.247 61.5598 558.301 61.5598 556.285 61.5598C554.339 61.5598 552.324 61.5598 550.309 61.5598C548.363 61.5598 546.347 61.5598 544.401 61.5598C542.386 61.5598 540.44 61.5598 539.398 61.5598H538.425V48.2747Z" fill="#2C73FB"/>
<path d="M96.3206 37.7106C96.3206 35.3463 98.5428 33.4297 101.284 33.4297C104.025 33.4297 106.248 35.3463 106.248 37.7106V62.5401C106.248 64.9043 104.025 66.821 101.284 66.821C98.5428 66.821 96.3206 64.9043 96.3206 62.5401V37.7106Z" fill="#47DB99"/>
<path d="M139.639 31.5071C139.639 28.5816 141.861 26.21 144.602 26.21C147.344 26.21 149.566 28.5815 149.566 31.5071V61.5239C149.566 64.4494 147.344 66.821 144.602 66.821C141.861 66.821 139.639 64.4494 139.639 61.5239V31.5071Z" fill="#E4ECF4"/>
<path d="M110.76 50.1257C110.76 47.3844 112.983 45.1621 115.724 45.1621C118.465 45.1621 120.687 47.3844 120.687 50.1257V61.8578C120.687 64.5991 118.465 66.8213 115.724 66.8213C112.983 66.8213 110.76 64.5991 110.76 61.8578V50.1257Z" fill="#FF4B78"/>
<path d="M125.199 41.3978C125.199 38.4927 127.421 36.1377 130.163 36.1377C132.904 36.1377 135.126 38.4927 135.126 41.3978V61.5615C135.126 64.4666 132.904 66.8216 130.163 66.8216C127.421 66.8216 125.199 64.4666 125.199 61.5615V41.3978Z" fill="#2C73FB"/>
<path d="M154.078 60.5037C154.078 57.5132 156.301 55.0889 159.042 55.0889C161.783 55.0889 164.006 57.5132 164.006 60.5037V61.4061C164.006 64.3967 161.783 66.8209 159.042 66.8209C156.301 66.8209 154.078 64.3967 154.078 61.4061V60.5037Z" fill="#47DB99"/>
<path d="M427.867 82.9494C414.32 79.319 406.28 65.3924 409.91 51.8435C413.54 38.2947 427.466 30.2542 441.013 33.8846C454.561 37.515 462.601 51.4415 458.971 64.9904C455.341 78.5393 441.415 86.5798 427.867 82.9494Z" fill="#E4F4E6"/>
<path d="M459.836 58.4164C459.836 63.4396 458.347 68.35 455.556 72.5266C452.766 76.7033 448.799 79.9586 444.159 81.8809C439.518 83.8032 434.412 84.3062 429.486 83.3262C424.56 82.3462 420.034 79.9273 416.483 76.3753C412.931 72.8234 410.512 68.2979 409.532 63.3712C408.553 58.4445 409.055 53.3379 410.978 48.697C412.9 44.0562 416.155 40.0896 420.331 37.2989C424.507 34.5081 429.418 33.0186 434.44 33.0186V58.4164H459.836Z" fill="#47DB99"/>
<path d="M50.2366 363.304C263.39 363.304 382.897 363.304 596.05 363.304" stroke="black" stroke-width="2" stroke-linecap="round"/>
<path d="M455.546 128.182C479.762 131.641 529.368 149.841 534.061 194.964C538.753 240.088 525.487 310.33 518.267 339.81" stroke="black" stroke-width="2"/>
<path d="M599.413 216.361C585.556 214.776 555.048 218.807 543.864 247.615C532.681 276.423 526.481 324.54 524.779 344.997" stroke="black" stroke-width="2"/>
<rect x="564.648" y="312.639" width="79.2221" height="8.82961" transform="rotate(180 564.648 312.639)" fill="white" stroke="black" stroke-width="2"/>
<path d="M557.193 312.986L547.971 363.004L501.683 363.004L492.461 312.986L557.193 312.986Z" fill="white" stroke="black" stroke-width="2"/>
<path d="M524.224 130.459C521.969 138.363 516.739 142.223 512.041 144.132C509.682 145.09 507.46 145.554 505.826 145.777C505.011 145.888 504.346 145.939 503.889 145.962C503.721 145.971 503.582 145.976 503.474 145.978C503.383 145.919 503.267 145.841 503.13 145.746C502.754 145.485 502.216 145.091 501.582 144.566C500.312 143.514 498.669 141.948 497.171 139.889C494.188 135.788 491.782 129.75 494.037 121.847C496.31 113.879 502.265 107.702 507.753 103.484C510.486 101.384 513.076 99.79 514.982 98.7221C515.934 98.1885 516.714 97.7871 517.253 97.5203C517.271 97.5112 517.29 97.5022 517.307 97.4934C517.318 97.5103 517.329 97.5275 517.339 97.545C517.657 98.0561 518.107 98.8085 518.635 99.7643C519.69 101.677 521.049 104.398 522.262 107.624C524.698 114.103 526.497 122.491 524.224 130.459Z" fill="#47DB99" stroke="black" stroke-width="2"/>
<path d="M504.75 155.912C510.547 154.721 514.744 156.771 517.528 159.136C518.928 160.326 519.967 161.594 520.655 162.567C520.999 163.051 521.253 163.46 521.419 163.743C521.46 163.812 521.496 163.874 521.526 163.928C521.519 163.989 521.511 164.06 521.501 164.14C521.46 164.466 521.387 164.941 521.263 165.522C521.013 166.687 520.558 168.262 519.741 169.908C518.115 173.179 515.067 176.718 509.27 177.909C503.407 179.114 497.442 177.364 492.866 175.238C490.591 174.181 488.69 173.045 487.359 172.174C486.789 171.801 486.325 171.478 485.982 171.231C486.2 170.869 486.499 170.388 486.876 169.821C487.755 168.496 489.054 166.703 490.729 164.834C494.095 161.076 498.887 157.116 504.75 155.912Z" fill="#47DB99" stroke="black" stroke-width="2"/>
<path d="M442.387 133.177C446.286 128.724 450.869 127.82 454.516 128.022C456.35 128.123 457.945 128.506 459.081 128.864C459.648 129.043 460.097 129.214 460.401 129.339C460.475 129.37 460.541 129.398 460.598 129.422C460.629 129.475 460.666 129.536 460.706 129.606C460.87 129.891 461.099 130.313 461.351 130.851C461.857 131.93 462.447 133.46 462.79 135.265C463.472 138.854 463.183 143.516 459.285 147.969C455.342 152.472 449.533 154.684 444.603 155.756C442.151 156.289 439.95 156.533 438.364 156.644C437.684 156.691 437.119 156.714 436.696 156.725C436.651 156.305 436.599 155.741 436.556 155.061C436.456 153.474 436.407 151.26 436.611 148.76C437.021 143.731 438.445 137.68 442.387 133.177Z" fill="#47DB99" stroke="black" stroke-width="2"/>
<path d="M554.792 205.419C550.174 209.12 545.504 209.206 541.948 208.368C540.16 207.947 538.657 207.291 537.601 206.739C537.074 206.464 536.662 206.216 536.385 206.04C536.317 205.996 536.257 205.957 536.206 205.923C536.184 205.866 536.159 205.799 536.132 205.723C536.02 205.414 535.868 204.958 535.714 204.384C535.406 203.233 535.093 201.624 535.072 199.787C535.029 196.134 536.131 191.595 540.749 187.894C545.42 184.151 551.527 182.992 556.569 182.801C559.076 182.706 561.286 182.851 562.867 183.02C563.544 183.093 564.105 183.169 564.523 183.233C564.494 183.655 564.446 184.218 564.37 184.895C564.19 186.475 563.85 188.663 563.211 191.09C561.925 195.969 559.463 201.676 554.792 205.419Z" fill="#47DB99" stroke="black" stroke-width="2"/>
<path d="M515.91 279.421C520.528 283.122 525.198 283.208 528.754 282.37C530.542 281.949 532.045 281.293 533.101 280.741C533.628 280.466 534.04 280.218 534.317 280.042C534.385 279.998 534.445 279.959 534.496 279.925C534.518 279.868 534.543 279.801 534.57 279.725C534.682 279.416 534.834 278.96 534.988 278.386C535.296 277.235 535.609 275.626 535.63 273.789C535.673 270.136 534.571 265.597 529.953 261.896C525.282 258.153 519.175 256.994 514.133 256.803C511.626 256.708 509.416 256.853 507.835 257.022C507.158 257.095 506.597 257.171 506.179 257.235C506.208 257.657 506.256 258.22 506.333 258.897C506.512 260.477 506.852 262.665 507.491 265.092C508.777 269.971 511.239 275.678 515.91 279.421Z" fill="#47DB99" stroke="black" stroke-width="2"/>
<path d="M557.557 255.298C552.279 252.619 550.273 248.401 549.568 244.817C549.213 243.014 549.19 241.375 549.257 240.185C549.29 239.592 549.345 239.114 549.392 238.789C549.403 238.709 549.414 238.639 549.423 238.578C549.467 238.534 549.517 238.484 549.575 238.428C549.81 238.198 550.163 237.872 550.622 237.495C551.543 236.739 552.88 235.789 554.544 235.011C557.854 233.464 562.443 232.594 567.72 235.272C573.058 237.981 576.634 243.065 578.891 247.578C580.012 249.822 580.792 251.894 581.291 253.404C581.505 254.051 581.666 254.593 581.781 255C581.385 255.148 580.852 255.338 580.204 255.547C578.69 256.036 576.557 256.63 574.084 257.049C569.109 257.893 562.894 258.007 557.557 255.298Z" fill="#47DB99" stroke="black" stroke-width="2"/>
<path d="M590.424 235.056C587.482 229.921 588.118 225.294 589.495 221.91C590.188 220.208 591.068 218.825 591.777 217.867C592.13 217.389 592.438 217.02 592.655 216.774C592.709 216.713 592.756 216.66 592.798 216.615C592.858 216.602 592.928 216.588 593.007 216.572C593.329 216.51 593.804 216.43 594.395 216.367C595.579 216.24 597.218 216.18 599.036 216.442C602.652 216.965 606.966 218.754 609.909 223.889C612.885 229.082 613.086 235.295 612.496 240.306C612.203 242.798 611.718 244.958 611.306 246.495C611.13 247.152 610.968 247.694 610.841 248.097C610.428 248.004 609.879 247.87 609.222 247.689C607.688 247.268 605.579 246.594 603.281 245.587C598.659 243.563 593.401 240.249 590.424 235.056Z" fill="#47DB99" stroke="black" stroke-width="2"/>
<path d="M185.063 362.591L185.161 363.481H186.057H213.994H214.89L214.988 362.591L220.068 316.749L220.191 315.639H219.074H180.977H179.86L179.983 316.749L185.063 362.591Z" fill="#E4ECF4" stroke="black" stroke-width="2"/>
<path d="M178.232 309.409L177.939 309.701V310.116V315.654V316.654H178.939H221.112H222.112V315.654V310.116V309.701L221.82 309.409L215.536 303.125L215.243 302.832H214.829H185.223H184.808L184.515 303.125L178.232 309.409Z" fill="white" stroke="black" stroke-width="2"/>
<path d="M182.25 328.008L217.845 328.008L214.262 362.481H186.072L182.25 328.008Z" fill="#2C73FB"/>
<path d="M286.601 84.3905L293.836 84.3905L318.742 99.626L318.742 84.3905C325.221 84.3905 330.473 79.1384 330.473 72.6596L330.473 44.4149C330.473 35.026 322.862 27.4149 313.473 27.4149L286.601 27.4149C277.212 27.4149 269.601 35.026 269.601 44.4149L269.601 67.3905C269.601 76.7794 277.212 84.3905 286.601 84.3905Z" fill="white" stroke="black" stroke-width="2"/>
<path d="M285.157 52.5541C285.157 55.2161 286.289 56.8133 286.855 57.3457C287.422 57.8781 299.737 70.2566 299.737 70.2566C299.737 70.2566 312.052 57.8781 312.618 57.3457C313.184 56.8133 314.317 55.2161 314.317 52.5541C314.317 47.9964 310.388 44.3018 305.54 44.3018C303.315 44.3018 301.284 45.0804 299.737 46.3636C298.19 45.0804 296.158 44.3018 293.933 44.3018C289.086 44.3018 285.157 47.9964 285.157 52.5541Z" fill="#FF4B78"/>
<defs>
<clipPath id="clip0_1_12531">
<rect width="64.5004" height="37.6253" fill="white" transform="translate(130.404 128.472)"/>
</clipPath>
<clipPath id="clip1_1_12531">
<rect width="64.5004" height="37.6253" fill="white" transform="translate(54.6917 177.927)"/>
</clipPath>
</defs>
</svg>
