<svg width="321" height="241" viewBox="0 0 321 241" fill="none" xmlns="http://www.w3.org/2000/svg">
<g clip-path="url(#clip0_9_17)">
<path fill-rule="evenodd" clip-rule="evenodd" d="M215.805 100.999C187.801 100.999 165.076 123.711 165.076 151.757C165.076 165.95 170.879 178.804 180.337 188.053H251.274C260.731 178.804 266.534 165.95 266.534 151.757C266.534 123.711 243.809 100.999 215.805 100.999ZM265.953 231.444H165.657C139.236 214.771 121.685 185.314 121.685 151.757C121.685 99.7595 163.824 57.6074 215.805 57.6074C267.786 57.6074 309.925 99.7595 309.925 151.757C309.925 185.314 292.374 214.771 265.953 231.444Z" fill="#E4ECF4"/>
<path d="M41.2563 161.429C41.2563 146.618 53.2636 134.61 68.0753 134.61C82.887 134.61 94.8943 146.618 94.8943 161.429V232.5H41.2563V161.429Z" fill="black"/>
<rect x="132.257" y="58.7576" width="105.773" height="39.2049" fill="white" stroke="black" stroke-width="1.4"/>
<rect x="131.557" y="58.0576" width="56.5447" height="40.6049" fill="black"/>
<path d="M197.471 71.127H230.542" stroke="black" stroke-width="1.4" stroke-linecap="round"/>
<path d="M197.47 75.9492H230.541" stroke="black" stroke-width="1.4" stroke-linecap="round"/>
<path d="M197.47 80.7705H230.541" stroke="black" stroke-width="1.4" stroke-linecap="round"/>
<path d="M197.47 85.5918H210.948" stroke="black" stroke-width="1.4" stroke-linecap="round"/>
<path d="M137.232 71.0986H149.962" stroke="white" stroke-width="1.4" stroke-linecap="round"/>
<path d="M151.377 71.0986H154.207" stroke="#FF3366" stroke-width="1.4" stroke-linecap="round"/>
<path d="M155.622 71.0986H168.352" stroke="white" stroke-width="1.4" stroke-linecap="round"/>
<path d="M137.233 75.9395H159.864" stroke="white" stroke-width="1.4" stroke-linecap="round"/>
<path d="M161.279 75.9395H178.253" stroke="#FF3366" stroke-width="1.4" stroke-linecap="round"/>
<path d="M179.667 75.9395H182.497" stroke="white" stroke-width="1.4" stroke-linecap="round"/>
<path d="M165.522 80.7803H176.838" stroke="#FF3366" stroke-width="1.4" stroke-linecap="round"/>
<path d="M140.063 80.7803H164.109" stroke="#FF3366" stroke-width="1.4" stroke-linecap="round"/>
<path d="M137.233 85.6211H151.378" stroke="white" stroke-width="1.4" stroke-linecap="round"/>
<path d="M114.997 187.601L114.99 187.597L114.983 187.594L114.692 188.231C114.983 187.594 114.983 187.594 114.982 187.594L114.982 187.593L114.979 187.592L114.966 187.586L114.916 187.563L114.719 187.473C114.546 187.394 114.291 187.277 113.964 187.126C113.31 186.824 112.366 186.387 111.211 185.846C108.901 184.766 105.744 183.272 102.357 181.622C95.562 178.311 87.905 174.397 84.2608 171.908C80.7435 169.506 78.8917 166.012 78.275 162.512C77.6552 158.995 78.2924 155.525 79.6844 153.217C81.0604 150.934 83.6285 149.26 86.4715 148.541C89.315 147.822 92.3167 148.086 94.5434 149.525C96.9579 151.085 103.255 155.524 108.966 159.586C111.818 161.614 114.518 163.545 116.505 164.968C117.498 165.679 118.314 166.264 118.88 166.671L119.536 167.142L119.707 167.265L119.751 167.296L119.762 167.304L119.765 167.306L119.765 167.307C119.765 167.307 119.766 167.307 120.174 166.739L119.766 167.307L120.273 167.672L120.693 167.209L135.023 151.393C137.775 148.354 142.435 148.03 145.583 150.657C148.731 153.284 149.245 157.927 146.747 161.179L127.694 185.99C124.668 189.931 119.64 189.846 114.997 187.601Z" fill="white" stroke="black" stroke-width="1.4"/>
<path d="M33.6759 179.988L32.8819 179.422L33.6722 178.851L56.1055 162.636C60.8458 159.21 62.5153 152.127 59.8432 146.954C57.0784 141.601 50.7512 140.377 46.0712 144.379L13.8992 171.886C13.0564 172.606 12.348 173.468 11.7865 174.421L11.7777 174.436L11.7682 174.45C11.4331 174.959 11.141 175.522 10.901 176.136C9.00933 180.979 11.1917 186.995 15.769 189.532L48.5439 207.699C52.2142 209.733 56.361 208.016 57.5511 203.947C58.5258 200.615 57.1751 196.743 54.3164 194.705L33.6759 179.988Z" fill="white" stroke="black" stroke-width="1.4" stroke-linecap="round"/>
<path d="M41.2563 163.113V203.929C41.2563 219.708 53.2636 232.499 68.0753 232.499L54.2401 181.253L62.1155 149.962L54.2401 138.633C46.4593 143.634 41.2563 152.726 41.2563 163.113Z" fill="black"/>
<path d="M59.8376 128.449C59.8376 127.762 60.283 127.035 61.2226 126.445C62.1528 125.861 63.4812 125.476 64.9851 125.476H76.1229C77.6267 125.476 78.9551 125.861 79.8852 126.445C80.8248 127.035 81.2702 127.762 81.2702 128.449L81.2698 142.863C81.2698 143.55 80.8244 144.277 79.8848 144.867C78.9546 145.451 77.6262 145.835 76.1224 145.835H64.9846C63.4807 145.835 62.1523 145.451 61.2222 144.867C60.2826 144.277 59.8372 143.55 59.8372 142.863L59.8376 128.449Z" fill="white" stroke="black" stroke-width="1.4" stroke-linecap="round"/>
<path d="M91.2963 117.556L99.28 113.761L90.5473 105.199" stroke="black" stroke-width="1.4" stroke-linecap="round"/>
<path d="M50.2465 103.77C49.3721 87.4113 59.1128 80.2735 70.9904 79.7168C107.209 78.0194 93.3298 116.837 92.8415 126.883C90.323 138.154 73.9567 139.167 63.1507 135.891C52.3448 132.615 51.3394 124.218 50.2465 103.77Z" fill="white" stroke="black" stroke-width="1.4" stroke-linecap="round"/>
<path d="M95.6004 99.7581C91.6801 98.3709 86.127 103.669 84.8239 103.841C83.5209 104.013 81.938 103.331 80.3489 103.841C78.7598 104.351 74.8213 109.624 78.7598 114C79.457 114.775 75.7673 122.098 75.7673 122.098C72.3192 127.114 52.6275 123.149 52.6461 124.105C52.6484 124.119 52.6495 124.126 52.6495 124.126C52.6474 124.119 52.6462 124.112 52.6461 124.105C52.5473 123.492 50.3391 109.778 50.1477 106.493C49.0194 93.2863 55.4158 82.0653 65.0242 80.6971C74.6325 79.3289 81.4769 79.2385 89.1348 84.2093C94.0055 86.8376 96.241 97.9058 95.6004 99.7581Z" fill="black"/>
<path d="M66.6829 83.5132C66.5145 83.5159 66.2746 83.5252 65.9767 83.5508C65.3816 83.6021 64.5511 83.7191 63.5942 83.9822C61.6802 84.5085 59.2431 85.6247 57.1888 87.9808C55.1454 90.3243 53.9489 93.3613 53.3278 96.1093C52.7097 98.8439 52.6376 101.401 52.9371 102.828" stroke="white" stroke-width="1.4" stroke-linecap="round"/>
<path d="M92.9429 124.86C92.4737 125.365 91.0613 126.072 89.5826 125.642C88.1039 125.212 87.5472 124.366 87.3391 123.851" stroke="black" stroke-width="1.4" stroke-linecap="round"/>
<path d="M90.9982 107.462C90.8679 108.894 90.4307 110.025 90.0216 109.987C89.6125 109.95 89.3864 108.759 89.5166 107.327C89.6469 105.895 90.0841 104.765 90.4932 104.802C90.9023 104.839 91.1284 106.03 90.9982 107.462Z" fill="black"/>
<path d="M87.7625 83.5651C87.8862 83.6509 88.0188 83.7401 88.1591 83.8343C88.6979 84.1966 89.3485 84.6341 90.0321 85.2448C91.0736 86.2687 92.6734 87.0567 94.1638 87.2887C95.6343 87.5177 97.241 87.2214 97.9003 85.7347C98.3256 84.7756 98.3992 83.9401 98.1655 83.2353C97.932 82.5313 97.4201 82.0429 96.8443 81.7212C96.2717 81.4012 95.6101 81.2297 95.0054 81.1605C94.4043 81.0918 93.8157 81.1193 93.3799 81.2332" stroke="black" stroke-width="1.4" stroke-linecap="round"/>
<path d="M269.518 51.3421C259.086 48.5467 252.895 37.823 255.69 27.3901C258.485 16.9572 269.208 10.7659 279.64 13.5614C290.072 16.3569 296.263 27.0806 293.468 37.5134C290.673 47.9463 279.95 54.1376 269.518 51.3421Z" fill="#E4ECF4"/>
<path d="M255.689 27.3895C256.808 23.2139 259.278 19.5266 262.715 16.9041C266.151 14.2816 270.359 12.8717 274.682 12.8947L274.578 32.4511L255.689 27.3895Z" fill="#2C73FB"/>
<path d="M180.246 200.092C178.88 204.881 175.713 207.218 172.865 208.375C171.435 208.957 170.086 209.238 169.095 209.373C168.6 209.441 168.197 209.472 167.921 209.486C167.833 209.49 167.759 209.493 167.698 209.495C167.647 209.461 167.585 209.419 167.513 209.37C167.286 209.212 166.96 208.973 166.575 208.654C165.804 208.016 164.807 207.066 163.899 205.817C162.091 203.332 160.634 199.675 162 194.886C163.38 190.051 166.995 186.298 170.337 183.729C172.001 182.45 173.577 181.48 174.737 180.83C175.294 180.518 175.753 180.281 176.079 180.119C176.27 180.429 176.535 180.873 176.844 181.431C177.486 182.596 178.313 184.251 179.052 186.215C180.535 190.161 181.625 195.257 180.246 200.092Z" fill="#47DB99" stroke="black" stroke-width="1.4"/>
<path d="M173.785 191.923L168.412 207.509" stroke="black" stroke-width="1.4" stroke-linecap="round"/>
<path d="M168.443 197.89C170.972 200.42 171.333 203.216 171.065 205.408C170.93 206.512 170.635 207.46 170.373 208.132C170.243 208.467 170.121 208.731 170.034 208.909C170.018 208.942 170.003 208.972 169.989 208.998C169.962 209.012 169.933 209.027 169.9 209.043C169.722 209.13 169.458 209.252 169.123 209.383C168.45 209.645 167.503 209.94 166.399 210.074C164.207 210.342 161.411 209.982 158.881 207.452C156.319 204.89 155.212 201.286 154.759 198.249C154.535 196.74 154.475 195.395 154.472 194.428C154.471 194.057 154.478 193.742 154.487 193.496C154.733 193.487 155.047 193.48 155.419 193.481C156.386 193.484 157.731 193.544 159.24 193.769C162.277 194.221 165.881 195.328 168.443 197.89Z" fill="#47DB99" stroke="black" stroke-width="1.4"/>
<path d="M160.987 199.527L166.953 207.224" stroke="black" stroke-width="1.4" stroke-linecap="round"/>
<path d="M177.483 210.077L174.832 223.996L161.401 223.996L158.749 210.077L177.483 210.077Z" fill="white" stroke="black" stroke-width="1.4"/>
<rect x="179.671" y="210.677" width="23.1107" height="3.15285" transform="rotate(180 179.671 210.677)" fill="white" stroke="black" stroke-width="1.4"/>
<path d="M1.5 231.788H320.149" stroke="black" stroke-width="1.4" stroke-linecap="round"/>
<path fill-rule="evenodd" clip-rule="evenodd" d="M108.459 13.5223C112.699 14.2872 117.163 17.0933 121.848 21.826C124.185 24.187 126.541 26.9888 128.952 29.9029C129.218 30.2251 129.486 30.5487 129.754 30.8731C131.888 33.4575 134.065 36.0931 136.245 38.4525C138.693 41.1017 141.239 43.5087 143.864 45.1665C146.496 46.8283 149.383 47.845 152.425 47.4059C153.507 47.2499 154.257 46.2465 154.101 45.1648C153.945 44.0831 152.942 43.3328 151.86 43.4889C150.088 43.7446 148.159 43.1979 145.977 41.8199C143.788 40.4378 141.519 38.3286 139.152 35.7666C137.052 33.4938 134.949 30.9482 132.803 28.3513C132.537 28.0281 132.269 27.7042 132.001 27.3799C129.597 24.4749 127.138 21.5444 124.66 19.0417C119.716 14.0469 114.55 10.5996 109.161 9.62748C103.652 8.63372 98.2496 10.2843 93.0703 14.7689C88.3492 18.8567 83.6856 25.4309 79.2122 31.7368C78.91 32.1627 78.6087 32.5875 78.3083 33.0101C73.4318 39.8716 68.8122 46.1592 64.3191 49.4012C60.069 52.4679 55.9686 52.7467 51.7623 51.0774C47.3938 49.3438 42.8326 45.4652 38.0838 39.9828C36.1913 37.798 34.3023 35.3992 32.3793 32.9573C31.8943 32.3414 31.4071 31.7227 30.9172 31.1041C28.5094 28.0637 26.0423 25.0333 23.55 22.5158C21.0768 20.0174 18.4388 17.8768 15.6516 16.7706C12.76 15.6231 9.71007 15.5989 6.71045 17.3304C5.76401 17.8767 5.43961 19.0869 5.9859 20.0334C6.53218 20.9799 7.74228 21.3044 8.68874 20.758C10.5039 19.7102 12.2687 19.686 14.1919 20.4492C16.2195 21.2539 18.3962 22.9348 20.7378 25.3001C23.0603 27.6463 25.408 30.5219 27.815 33.5612C28.288 34.1586 28.7638 34.7628 29.2417 35.3697C31.1703 37.819 33.1332 40.312 35.0927 42.5741C39.9734 48.2089 45.0417 52.6682 50.3027 54.756C55.726 56.9083 61.2551 56.4922 66.6346 52.6107C71.771 48.9045 76.7809 41.9906 81.5339 35.303C81.7963 34.9338 82.058 34.5651 82.3191 34.1974C86.9162 27.7215 91.3176 21.5213 95.6606 17.7609C100.111 13.9077 104.338 12.779 108.459 13.5223Z" fill="#FF3366"/>
<path fill-rule="evenodd" clip-rule="evenodd" d="M139.185 24.8165C135.009 24.8165 126.933 24.8177 118.947 32.4397L118.938 32.4484L118.929 32.4569C116.843 34.4046 114.729 36.8773 112.549 39.5694C111.817 40.4738 111.072 41.41 110.321 42.3544C108.877 44.1687 107.409 46.0134 105.962 47.721C103.75 50.3303 101.443 52.7958 99.0596 54.6187C96.6899 56.4308 94.0189 57.7825 91.11 57.7825C88.26 57.7825 85.6231 56.4353 83.3205 54.8203C81.1725 53.3137 79.0391 51.3688 77.0359 49.5428C76.8753 49.3964 76.7155 49.2507 76.5566 49.1061C74.3515 47.0992 72.3078 45.2834 70.3216 44.0245C68.328 42.7609 66.7084 42.2662 65.3139 42.4564C63.8537 42.6555 62.1063 43.6633 60.0348 45.6064C58.0027 47.5126 55.9137 50.0716 53.7416 52.9271C52.8918 54.0443 52.0145 55.2274 51.1278 56.4231C49.8125 58.1967 48.4767 59.9981 47.179 61.654C44.9812 64.4586 42.6865 67.1221 40.329 69.0509L40.3195 69.0587L40.3099 69.0664C35.3215 73.0571 30.2408 73.7638 25.2534 72.587C20.45 71.4536 15.7809 68.5828 11.3797 65.6487C10.3527 64.964 10.0752 63.5764 10.7599 62.5494C11.4445 61.5224 12.8321 61.2449 13.8591 61.9296C18.2882 64.8823 22.3511 67.3096 26.2798 68.2366C30.0213 69.1194 33.6697 68.6502 37.508 65.5838C39.4646 63.9808 41.5083 61.6436 43.6608 58.8969C44.9437 57.2598 46.1938 55.573 47.4648 53.858C48.3548 52.657 49.2551 51.4422 50.1841 50.221C52.378 47.3368 54.6551 44.5242 56.9767 42.3464C59.259 40.2055 61.8531 38.4171 64.7099 38.0275C67.6324 37.629 70.3543 38.7532 72.7144 40.2491C75.082 41.7496 77.4044 43.8338 79.5652 45.8004C79.7081 45.9305 79.8504 46.0601 79.992 46.1891C82.0556 48.0691 83.9842 49.826 85.8872 51.1608C87.9384 52.5996 89.643 53.3127 91.11 53.3127C92.6162 53.3127 94.3357 52.6041 96.3444 51.0681C98.3389 49.5428 100.398 47.3725 102.552 44.8308C103.959 43.1715 105.345 41.4285 106.758 39.6524C107.521 38.6943 108.29 37.7265 109.075 36.757C111.271 34.0442 113.545 31.3694 115.87 29.1978C125.149 20.3467 134.727 20.3467 139.184 20.3467H143.502C144.737 20.3467 145.737 21.3473 145.737 22.5816C145.737 23.8159 144.737 24.8165 143.502 24.8165H139.185Z" fill="#2C73FB"/>
<path d="M220.743 169.195L194.042 222.752C193.048 224.747 194.499 227.091 196.727 227.091H283.217C284.38 227.091 285.439 226.419 285.933 225.366L311.072 171.808C312.006 169.818 310.554 167.533 308.357 167.533H223.428C222.291 167.533 221.251 168.177 220.743 169.195Z" fill="black"/>
<path d="M225.535 174.731L205.692 214.531C204.698 216.526 206.148 218.87 208.377 218.87H273.329C274.492 218.87 275.551 218.198 276.045 217.145L294.727 177.344C295.661 175.355 294.209 173.069 292.011 173.069H228.22C227.082 173.069 226.042 173.713 225.535 174.731Z" fill="white"/>
<path d="M229.016 178.086L212.519 211.176C211.525 213.17 212.976 215.514 215.204 215.514H269.649C270.812 215.514 271.871 214.842 272.365 213.789L287.897 180.7C288.83 178.71 287.379 176.425 285.181 176.425H231.701C230.563 176.425 229.524 177.068 229.016 178.086Z" fill="white" stroke="black" stroke-width="1.4"/>
<path d="M264.362 185.994L260.759 193.221C260.428 193.886 260.911 194.667 261.654 194.667H273.848C274.236 194.667 274.589 194.443 274.754 194.092L278.146 186.865C278.457 186.202 277.973 185.44 277.24 185.44H265.257C264.878 185.44 264.531 185.655 264.362 185.994Z" fill="black"/>
<path d="M260.549 185.682L256.947 192.909C256.383 194.039 257.205 195.367 258.468 195.367H270.662C271.321 195.367 271.921 194.986 272.201 194.39L275.593 187.163L274.96 186.865L275.593 187.163C276.123 186.035 275.3 184.74 274.054 184.74H262.071C261.426 184.74 260.837 185.105 260.549 185.682Z" stroke="white" stroke-width="1.4"/>
<path d="M231.128 182.488L219.756 206.368C219.44 207.031 219.924 207.798 220.659 207.798H244.16C244.548 207.798 244.902 207.572 245.066 207.22L256.189 183.34C256.498 182.677 256.014 181.918 255.283 181.918H232.03C231.645 181.918 231.293 182.14 231.128 182.488Z" fill="#FF3366"/>
<path d="M257.306 200.79L255.33 205.081C255.025 205.744 255.509 206.499 256.238 206.499H268.456C268.86 206.499 269.223 206.257 269.379 205.885L271.172 201.593C271.447 200.935 270.963 200.208 270.249 200.208H258.214C257.824 200.208 257.469 200.435 257.306 200.79Z" fill="black"/>
<path d="M306.703 167.039L278.516 227.091" stroke="white" stroke-width="1.4"/>
<path d="M144.302 224.071H286.068C286.068 228.333 282.612 231.788 278.351 231.788H152.019C147.757 231.788 144.302 228.333 144.302 224.071Z" fill="black"/>
<path d="M255.154 61.8984H286.067V117.254H255.154V61.8984Z" fill="black"/>
<path d="M251.987 58.7576H281.5V112.714H251.987V58.7576Z" fill="white" stroke="black" stroke-width="1.4"/>
<rect x="258.267" y="82.5945" width="16.9522" height="6.28235" rx="3.14118" stroke="black" stroke-width="1.4"/>
<circle cx="261.722" cy="85.736" r="1.98601" fill="black"/>
<rect x="258.267" y="96.0027" width="16.9522" height="6.28235" rx="3.14118" stroke="black" stroke-width="1.4"/>
<circle cx="261.722" cy="99.1442" r="1.98601" fill="black"/>
<rect x="257.567" y="68.4854" width="18.3522" height="7.68235" rx="3.84118" fill="#47DB99"/>
<circle cx="272.021" cy="72.3268" r="1.98601" fill="white"/>
<path d="M306.043 213.289C306.043 213.289 292.364 222.673 294.275 225.956C296.185 229.239 299.848 227.666 300.312 225.26C300.776 222.854 294.413 216.713 287.234 221.343" stroke="black" stroke-width="1.4"/>
<path d="M271.24 143.368C277.348 140.153 283.456 137.581 289.671 138.867C296.885 140.386 302.485 149.738 307.995 154.298H191.593C201.104 148.676 207.813 140.755 216.163 133.724C222.271 128.58 228.378 126.009 234.486 129.866C240.594 133.724 246.809 144.011 252.917 147.225C259.025 150.44 265.133 146.582 271.24 143.368Z" fill="#2C73FB"/>
<rect x="317.6" y="209.403" width="9.86367" height="13.9824" rx="1" transform="rotate(124.002 317.6 209.403)" fill="#FF3366"/>
<path d="M313.127 210.091L317.411 203.74" stroke="black" stroke-width="1.4" stroke-linecap="round"/>
<path d="M310.161 208.09L314.445 201.739" stroke="black" stroke-width="1.4" stroke-linecap="round"/>
<path d="M307.046 205.99L311.331 199.639" stroke="black" stroke-width="1.4" stroke-linecap="round"/>
<path d="M314.076 214.435L302.664 206.737" stroke="black" stroke-width="1.4"/>
<path d="M262.143 141.513C268.251 138.299 274.358 135.727 280.573 137.013C287.787 138.531 293.387 147.883 298.897 152.443H182.495C192.006 146.821 198.715 138.9 207.065 131.869C213.173 126.726 219.281 124.154 225.389 128.012C231.496 131.869 237.711 142.156 243.819 145.371C249.927 148.585 256.035 144.728 262.143 141.513Z" stroke="black" stroke-width="1.4"/>
<circle cx="10.7934" cy="10.7934" r="10.7934" transform="matrix(-1 0 0 1 233.313 24.9463)" fill="#E4ECF4"/>
<circle cx="16.5449" cy="16.5449" r="15.8449" transform="matrix(-1 0 0 1 217.75 11.5391)" fill="white" stroke="black" stroke-width="1.4"/>
<path d="M193.401 28.2222L197.442 29.8554V31.1207L192.161 28.6741V27.7316L197.442 25.2915V26.5567L193.401 28.2222Z" fill="black"/>
<path d="M199.565 33.1864H198.539L202.464 22.9805H203.484L199.565 33.1864Z" fill="black"/>
<path d="M209.003 28.1835L204.736 26.5116V25.285L210.249 27.7252V28.6676L204.736 31.1142V29.8748L209.003 28.1835Z" fill="black"/>
<circle cx="4.73645" cy="4.73645" r="4.03645" transform="matrix(-1 0 0 1 218.572 30.9541)" fill="white" stroke="black" stroke-width="1.4"/>
<rect x="134.984" y="150.671" width="16.8674" height="13.7892" rx="6.89459" transform="rotate(-45 134.984 150.671)" fill="white" stroke="black" stroke-width="1.4"/>
<path d="M156.46 118.144L129.641 143.653L159.218 150.933L185.47 124.097L156.46 118.144Z" fill="white" stroke="black" stroke-width="1.4"/>
<path d="M144.57 136.913L140.263 141.01L146.218 142.413L150.434 138.103L144.57 136.913Z" fill="white" stroke="black" stroke-width="1.4"/>
<path d="M151.718 129.765L147.411 133.862L153.366 135.266L157.582 130.956L151.718 129.765Z" fill="white" stroke="black" stroke-width="1.4"/>
<path d="M158.866 122.617L154.559 126.714L160.514 128.117L164.73 123.807L158.866 122.617Z" fill="white" stroke="black" stroke-width="1.4"/>
<path d="M159.251 123.751L160.072 125.83L167.605 125.011" stroke="#FF3366" stroke-width="1.4"/>
<path d="M151.699 131.119L152.52 133.199L160.053 132.379" stroke="#FF3366" stroke-width="1.4"/>
<path d="M144.778 138.365L145.599 140.445L153.132 139.625" stroke="#FF3366" stroke-width="1.4"/>
<path d="M150.2 152.834C149.54 151.558 150.158 149.993 151.512 149.513L154.185 148.566C154.704 148.382 155.194 148.126 155.641 147.804L157.578 146.411C158.75 145.568 160.398 145.962 161.062 147.245C161.589 148.263 161.31 149.514 160.4 150.212L158.035 152.023C157.499 152.434 156.896 152.751 156.253 152.958L153.031 153.999C151.93 154.355 150.732 153.862 150.2 152.834Z" fill="white" stroke="black" stroke-width="1.4"/>
</g>
<defs>
<clipPath id="clip0_9_17">
<rect width="320" height="240" fill="white" transform="translate(0.5 0.5)"/>
</clipPath>
</defs>
</svg>
