<svg width="321" height="241" viewBox="0 0 321 241" fill="none" xmlns="http://www.w3.org/2000/svg">
<path fill-rule="evenodd" clip-rule="evenodd" d="M113.484 92.5121C113.484 119.782 135.589 141.889 162.857 141.889C190.125 141.889 212.23 119.782 212.23 92.5121C212.23 65.2419 190.125 43.1351 162.857 43.1351C135.589 43.1351 113.484 65.2419 113.484 92.5121ZM162.857 14.0898C119.549 14.0898 84.4407 49.2007 84.4407 92.5121C84.4407 135.823 119.549 170.934 162.857 170.934C206.165 170.934 241.273 135.823 241.273 92.5121C241.273 49.2007 206.165 14.0898 162.857 14.0898Z" fill="#E4ECF4"/>
<rect x="149.562" y="62.4275" width="27.2965" height="21.375" fill="white" stroke="black" stroke-width="1.4"/>
<path d="M140.161 41.1844C138.977 36.9448 140.654 33.9825 141.641 33.0312C141.693 35.2079 142.834 42.403 143.397 45.7284C143.116 46.0002 141.345 45.424 140.161 41.1844Z" fill="white" stroke="black" stroke-width="1.4"/>
<path d="M186.262 41.1844C187.446 36.9448 185.769 33.9825 184.782 33.0312C184.782 35.9335 183.611 42.7053 183.025 45.7284C183.307 46.0002 185.078 45.424 186.262 41.1844Z" fill="white" stroke="black" stroke-width="1.4"/>
<path d="M184.672 26.0258C184.105 19.5522 180.059 7.06738 163.119 7.06738C146.179 7.06738 142.318 19.5522 141.75 26.0258C141.059 33.9194 142.53 42.2908 144.137 50.0707C146.001 59.0951 148.755 68.1043 163.119 68.1043C177.482 68.1043 180.422 59.0951 182.286 50.0707C183.893 42.2908 185.364 33.9194 184.672 26.0258Z" fill="white" stroke="black" stroke-width="1.4"/>
<path d="M139.67 30.9613C140.301 22.4969 144.802 6.17285 163.644 6.17285C182.485 6.17285 186.78 22.4969 187.411 30.9613H156.884L150.228 23.1015V30.9613H139.67Z" fill="black"/>
<path d="M166.627 10.7119C175.678 11.5904 179.381 19.2262 180.292 23.0104" stroke="white" stroke-width="1.4" stroke-linecap="round"/>
<ellipse cx="154.328" cy="35.7634" rx="0.910999" ry="1.822" fill="black"/>
<ellipse cx="172.094" cy="35.7634" rx="0.910999" ry="1.822" fill="black"/>
<path d="M159.868 45.6506L163.541 43.8145L167.213 45.6506" stroke="black" stroke-width="1.4" stroke-linecap="round"/>
<path d="M154.328 52.1621C154.875 54.1618 157.28 57.9361 162.527 57.0363" stroke="black" stroke-width="1.4" stroke-linecap="round"/>
<path d="M170.129 7.93611C172.808 8.57167 178.005 9.5567 177.362 6.50603C176.558 2.69269 171.334 2.21603 170.932 4.59936" stroke="black" stroke-width="1.4" stroke-linecap="round"/>
<path d="M148.862 78.1256V62.6387C149.788 63.4453 150.447 66.7908 159.97 67.9623C164.2 68.4826 172.467 67.4784 176.17 63.6066C177.559 62.1547 177.559 64.5745 177.559 64.5745L148.862 78.1256Z" fill="black"/>
<path d="M160.939 75.1368L128.54 79.2975C124.702 79.7904 121.992 83.3039 122.49 87.1414L131.799 158.869C132.257 162.401 135.295 165.026 138.857 164.967L161.821 164.586L184.79 164.967C188.35 165.026 191.387 162.404 191.847 158.874L201.213 87.0676C201.715 83.2218 198.994 79.7012 195.146 79.217L162.704 75.1345C162.118 75.0608 161.525 75.0615 160.939 75.1368Z" fill="black"/>
<path d="M116.67 87.2659L116.67 87.2659L116.675 87.2544C119.144 81.2551 125.276 78.8765 130.667 81.1596C136.051 83.4396 138.7 89.5228 136.26 95.5131L136.228 95.5677L136.067 95.8465C135.927 96.0911 135.72 96.4506 135.455 96.9106C134.926 97.8306 134.166 99.1525 133.244 100.76C131.399 103.976 128.905 108.335 126.304 112.91C121.111 122.046 115.475 132.078 113.774 135.544C112.163 138.828 109.822 140.557 107.291 140.914C104.835 141.261 102.045 140.339 99.3673 137.998L104.056 116.43L116.67 87.2659Z" fill="white" stroke="black" stroke-width="1.4"/>
<path d="M78.394 107.423C75.8033 103.558 76.8364 98.3249 80.7015 95.7342C84.4136 93.246 89.4226 94.0891 92.1157 97.6553L113.18 125.549C116.348 129.744 115.464 135.721 111.218 138.82C106.901 141.97 100.831 140.897 97.8553 136.458L78.394 107.423Z" fill="white" stroke="black" stroke-width="1.4"/>
<path d="M69.7739 97.3948C68.654 96.5059 67.0064 96.8159 66.2861 98.051C65.6982 99.0594 65.9403 100.347 66.8546 101.072L70.6542 104.089C71.2282 104.544 71.8664 104.913 72.5481 105.182L76.6177 106.788C77.6943 107.213 78.9199 106.789 79.5029 105.789C80.2261 104.549 79.6743 102.956 78.3388 102.428L74.8738 101.061C74.2377 100.809 73.6422 100.466 73.1066 100.041L69.7739 97.3948Z" fill="white" stroke="black" stroke-width="1.4"/>
<path d="M69.8493 88.8673C69.0595 87.6754 67.3968 87.4603 66.3297 88.4119C65.4586 89.1888 65.2905 90.4878 65.9353 91.4608L68.615 95.5049C69.0198 96.1158 69.5127 96.6636 70.0777 97.1304L73.4504 99.9175C74.3426 100.655 75.6394 100.63 76.5032 99.8599C77.5747 98.9044 77.5429 97.2187 76.4362 96.3042L73.5646 93.9312C73.0374 93.4956 72.5775 92.9845 72.1998 92.4144L69.8493 88.8673Z" fill="white" stroke="black" stroke-width="1.4"/>
<path d="M85.9525 83.5259C85.6503 81.8313 87.0028 80.2959 88.722 80.3819C89.9675 80.4442 91.0051 81.3582 91.224 82.5859L92.4191 89.2875C92.5737 90.1546 92.5429 91.0447 92.3287 91.899L91.6223 94.7162C91.309 95.9662 90.1558 96.8204 88.8688 96.756C87.1692 96.6709 85.9712 95.0537 86.3851 93.4031L86.8637 91.494C87.0601 90.7109 87.0883 89.8952 86.9466 89.1004L85.9525 83.5259Z" fill="white" stroke="black" stroke-width="1.4"/>
<path d="M73.4932 81.2711C72.7795 79.9531 71.353 79.8368 70.407 81.0193C69.5686 82.0673 69.4115 83.7691 70.0454 84.9356L73.1511 90.6504C73.3895 91.0889 73.6536 91.4989 73.9411 91.8767L77.6357 96.7319C78.365 97.6902 79.537 97.7073 80.3755 96.7717C81.385 95.6455 81.5018 93.6221 80.6239 92.4684L77.3288 88.1383C77.059 87.7837 76.8113 87.3986 76.5882 86.9865L73.4932 81.2711Z" fill="white" stroke="black" stroke-width="1.4"/>
<path d="M83.5711 86.3377L83.5528 86.3027L83.5381 86.2646L80.6154 78.6862C80.1289 77.4249 78.8896 77.1047 77.8666 77.9759C76.8711 78.8238 76.453 80.4852 76.9264 81.7126L79.8777 89.3648L84.4011 98.0308C84.9522 99.0866 86.0861 99.2843 87.0215 98.4877C88.0943 97.5741 88.4759 95.7344 87.8439 94.5235L83.5711 86.3377Z" fill="white" stroke="black" stroke-width="1.4"/>
<circle cx="83.6499" cy="101.497" r="9.64201" fill="white" stroke="black" stroke-width="1.4"/>
<path d="M205.468 87.2659L205.468 87.2659L205.463 87.2544C202.994 81.2551 196.863 78.8765 191.471 81.1596C186.087 83.4396 183.438 89.5228 185.879 95.5131L185.91 95.5677L186.071 95.8465C186.212 96.0911 186.419 96.4506 186.683 96.9106C187.212 97.8306 187.972 99.1525 188.894 100.76C190.739 103.976 193.234 108.335 195.834 112.91C201.027 122.046 206.663 132.078 208.364 135.544C209.975 138.828 212.316 140.557 214.848 140.914C217.303 141.261 220.093 140.339 222.771 137.998L218.082 116.43L205.468 87.2659Z" fill="white" stroke="black" stroke-width="1.4"/>
<path d="M243.744 107.423C246.335 103.558 245.302 98.3249 241.436 95.7342C237.724 93.246 232.715 94.0891 230.022 97.6553L208.958 125.549C205.79 129.744 206.674 135.721 210.92 138.82C215.237 141.97 221.307 140.897 224.283 136.458L243.744 107.423Z" fill="white" stroke="black" stroke-width="1.4"/>
<path d="M252.364 97.3948C253.484 96.5059 255.132 96.8159 255.852 98.051C256.44 99.0594 256.198 100.347 255.283 101.072L251.484 104.089C250.91 104.544 250.272 104.913 249.59 105.182L245.52 106.788C244.444 107.213 243.218 106.789 242.635 105.789C241.912 104.549 242.464 102.956 243.799 102.428L247.264 101.061C247.9 100.809 248.496 100.466 249.031 100.041L252.364 97.3948Z" fill="white" stroke="black" stroke-width="1.4"/>
<path d="M252.289 88.8673C253.079 87.6754 254.741 87.4603 255.808 88.4119C256.68 89.1888 256.848 90.4878 256.203 91.4608L253.523 95.5049C253.118 96.1158 252.625 96.6636 252.061 97.1304L248.688 99.9175C247.796 100.655 246.499 100.63 245.635 99.8599C244.563 98.9044 244.595 97.2187 245.702 96.3042L248.574 93.9312C249.101 93.4956 249.561 92.9845 249.938 92.4144L252.289 88.8673Z" fill="white" stroke="black" stroke-width="1.4"/>
<path d="M236.185 83.5259C236.488 81.8313 235.135 80.2959 233.416 80.3819C232.17 80.4442 231.133 81.3582 230.914 82.5859L229.719 89.2875C229.564 90.1546 229.595 91.0447 229.809 91.899L230.516 94.7162C230.829 95.9662 231.982 96.8204 233.269 96.756C234.969 96.6709 236.167 95.0537 235.753 93.4031L235.274 91.494C235.078 90.7109 235.05 89.8952 235.191 89.1004L236.185 83.5259Z" fill="white" stroke="black" stroke-width="1.4"/>
<path d="M248.645 81.2711C249.358 79.9531 250.785 79.8368 251.731 81.0193C252.569 82.0673 252.726 83.7691 252.093 84.9356L248.987 90.6504C248.748 91.0889 248.484 91.4989 248.197 91.8767L244.502 96.7319C243.773 97.6902 242.601 97.7073 241.762 96.7717C240.753 95.6455 240.636 93.6221 241.514 92.4684L244.809 88.1383C245.079 87.7837 245.327 87.3986 245.55 86.9865L248.645 81.2711Z" fill="white" stroke="black" stroke-width="1.4"/>
<path d="M238.567 86.3377L238.585 86.3027L238.6 86.2646L241.523 78.6862C242.009 77.4249 243.248 77.1047 244.271 77.9759C245.267 78.8238 245.685 80.4852 245.212 81.7126L242.26 89.3648L237.737 98.0308C237.186 99.0866 236.052 99.2843 235.116 98.4877C234.044 97.5741 233.662 95.7344 234.294 94.5235L238.567 86.3377Z" fill="white" stroke="black" stroke-width="1.4"/>
<circle cx="10.342" cy="10.342" r="9.64201" transform="matrix(-1 0 0 1 248.83 91.1553)" fill="white" stroke="black" stroke-width="1.4"/>
<rect x="150.327" y="94.1826" width="13.4113" height="5.74771" fill="white"/>
<rect x="144.579" y="94.1826" width="5.74771" height="5.74771" fill="#FF3366"/>
<rect x="145.539" y="95.1406" width="3.83181" height="3.83181" fill="white"/>
<rect x="91.8676" y="180.453" width="20.6329" height="31.3185" rx="10.3164" transform="rotate(35.435 91.8676 180.453)" fill="white" stroke="black" stroke-width="1.4"/>
<rect x="-0.256218" y="0.956218" width="23.165" height="35.0786" rx="11.5825" transform="matrix(-0.866025 0.5 0.5 0.866025 237.973 193.882)" fill="white" stroke="black" stroke-width="1.4"/>
<path d="M106.174 182.348C104.707 181.141 105.011 178.813 106.739 178.023C107.634 177.614 108.683 177.751 109.443 178.376L111.983 180.467C113.844 181.998 114.897 184.301 114.837 186.711L114.756 190C114.732 190.983 114.149 191.867 113.254 192.276C111.525 193.066 109.566 191.773 109.613 189.873L109.664 187.83C109.704 186.216 108.999 184.673 107.752 183.647L106.174 182.348Z" fill="white" stroke="black" stroke-width="1.4"/>
<path d="M222.609 195.352C224.414 194.133 224.32 191.444 222.433 190.355C221.457 189.791 220.245 189.834 219.31 190.465L216.27 192.517C214.022 194.034 212.597 196.501 212.407 199.207L212.15 202.866C212.071 203.991 212.641 205.062 213.617 205.626C215.504 206.715 217.879 205.452 218.032 203.279L218.192 201.006C218.316 199.235 219.249 197.62 220.72 196.626L222.609 195.352Z" fill="white" stroke="black" stroke-width="1.4"/>
<path d="M108.275 192.807C105.979 198.968 99.7696 202.181 94.5038 200.219C89.2381 198.257 86.6449 191.764 88.9402 185.604C91.2356 179.443 97.4453 176.23 102.711 178.192C107.977 180.154 110.57 186.647 108.275 192.807Z" fill="white" stroke="black" stroke-width="1.4"/>
<path d="M219.051 206.693C220.957 213.807 227.548 218.066 233.651 216.43C239.755 214.795 243.333 207.811 241.427 200.697C239.521 193.583 232.93 189.324 226.826 190.96C220.723 192.595 217.145 199.579 219.051 206.693Z" fill="white" stroke="black" stroke-width="1.4"/>
<path d="M104.128 196.513C105.908 195.846 107.772 197.273 107.592 199.165C107.498 200.145 106.855 200.985 105.934 201.33L102.853 202.485C100.596 203.331 98.0753 203.091 96.0183 201.835L93.2107 200.12C92.3713 199.607 91.8978 198.66 91.991 197.681C92.171 195.789 94.2703 194.739 95.8923 195.73L97.636 196.795C99.014 197.637 100.703 197.797 102.215 197.231L104.128 196.513Z" fill="white" stroke="black" stroke-width="1.4"/>
<path d="M223.667 211.357C221.774 210.415 219.551 211.792 219.551 213.906C219.551 214.987 220.163 215.974 221.13 216.456L224.209 217.988C226.566 219.161 229.337 219.161 231.694 217.988L234.773 216.456C235.741 215.974 236.352 214.987 236.352 213.906C236.352 211.792 234.129 210.415 232.236 211.357L230.407 212.267C228.861 213.037 227.043 213.037 225.496 212.267L223.667 211.357Z" fill="white" stroke="black" stroke-width="1.4"/>
<rect x="135.329" y="119.061" width="25.8647" height="54.6032" rx="12" transform="rotate(35.435 135.329 119.061)" fill="black"/>
<rect width="28.8372" height="60.8786" rx="14.4186" transform="matrix(-0.866025 0.5 0.5 0.866025 196.887 121.963)" fill="black"/>
<path d="M146.116 128.191C151.289 131.872 152.498 139.05 148.818 144.222L135.171 163.492" stroke="white" stroke-width="1.4" stroke-linecap="round"/>
<path d="M183.95 130.958C177.82 134.497 175.72 142.336 179.259 148.466L188.07 163.727" stroke="white" stroke-width="1.4" stroke-linecap="round"/>
<rect x="114.075" y="160.053" width="12.9693" height="45.0875" rx="6.48464" transform="rotate(35.435 114.075 160.053)" fill="white" stroke="black" stroke-width="1.4"/>
<rect x="-0.256218" y="0.956218" width="14.6207" height="50.4302" rx="7.31034" transform="matrix(-0.866025 0.5 0.5 0.866025 215.481 168.896)" fill="white" stroke="black" stroke-width="1.4"/>
<path d="M97.2978 182.451C96.0127 183.848 93.7186 183.484 92.9292 181.757C92.4852 180.786 92.6666 179.643 93.3896 178.857L96.3223 175.668C97.9954 173.848 100.332 172.78 102.802 172.706L107.133 172.575C108.2 172.542 109.183 173.153 109.627 174.125C110.417 175.851 109.191 177.824 107.293 177.882L103.969 177.982C102.284 178.033 100.69 178.762 99.5487 180.003L97.2978 182.451Z" fill="white" stroke="black" stroke-width="1.4"/>
<path d="M232.341 196.386C233.655 198.119 236.31 197.952 237.397 196.069C238.009 195.01 237.926 193.687 237.187 192.712L234.268 188.863C232.59 186.65 230.091 185.207 227.335 184.86L222.542 184.257C221.329 184.105 220.142 184.695 219.53 185.754C218.443 187.637 219.626 190.019 221.784 190.291L225.462 190.753C227.306 190.985 228.979 191.951 230.101 193.431L232.341 196.386Z" fill="white" stroke="black" stroke-width="1.4"/>
<path d="M104.274 184.707C102.807 183.499 103.111 181.171 104.839 180.381C105.734 179.972 106.783 180.11 107.543 180.735L110.083 182.825C111.945 184.357 112.997 186.66 112.938 189.069L112.856 192.358C112.832 193.342 112.249 194.225 111.354 194.634C109.626 195.424 107.667 194.131 107.714 192.231L107.764 190.188C107.804 188.574 107.099 187.031 105.852 186.005L104.274 184.707Z" fill="white" stroke="black" stroke-width="1.4"/>
<path d="M224.469 198.171C226.275 196.952 226.18 194.264 224.294 193.174C223.317 192.611 222.105 192.653 221.17 193.284L218.13 195.336C215.882 196.853 214.457 199.321 214.267 202.026L214.01 205.685C213.931 206.81 214.501 207.881 215.477 208.445C217.364 209.534 219.739 208.271 219.892 206.098L220.052 203.826C220.176 202.054 221.109 200.439 222.58 199.446L224.469 198.171Z" fill="white" stroke="black" stroke-width="1.4"/>
<path d="M102.037 187.963C100.57 186.756 100.874 184.428 102.602 183.638C103.497 183.229 104.546 183.366 105.306 183.991L107.846 186.082C109.707 187.614 110.76 189.917 110.701 192.326L110.619 195.615C110.595 196.599 110.012 197.482 109.117 197.891C107.388 198.681 105.429 197.388 105.477 195.488L105.527 193.445C105.567 191.831 104.862 190.288 103.615 189.262L102.037 187.963Z" fill="white" stroke="black" stroke-width="1.4"/>
<path d="M226.606 202.021C228.412 200.802 228.318 198.113 226.431 197.024C225.455 196.46 224.242 196.503 223.308 197.134L220.268 199.186C218.02 200.703 216.595 203.17 216.405 205.876L216.148 209.535C216.069 210.66 216.638 211.731 217.615 212.295C219.501 213.384 221.877 212.121 222.03 209.948L222.189 207.675C222.314 205.904 223.246 204.289 224.718 203.295L226.606 202.021Z" fill="white" stroke="black" stroke-width="1.4"/>
<path d="M99.8021 191.219C98.3344 190.012 98.6385 187.684 100.367 186.894C101.262 186.485 102.311 186.622 103.071 187.247L105.611 189.338C107.472 190.869 108.525 193.172 108.465 195.582L108.384 198.871C108.36 199.854 107.777 200.738 106.882 201.147C105.153 201.937 103.194 200.644 103.241 198.744L103.292 196.701C103.332 195.087 102.627 193.544 101.38 192.518L99.8021 191.219Z" fill="white" stroke="black" stroke-width="1.4"/>
<path d="M228.744 205.871C230.55 204.653 230.455 201.964 228.569 200.875C227.592 200.311 226.38 200.353 225.445 200.984L222.405 203.036C220.157 204.553 218.732 207.021 218.542 209.726L218.285 213.385C218.207 214.51 218.776 215.581 219.752 216.145C221.639 217.234 224.015 215.972 224.167 213.798L224.327 211.526C224.451 209.755 225.384 208.139 226.856 207.146L228.744 205.871Z" fill="white" stroke="black" stroke-width="1.4"/>
<rect x="104.657" y="174.414" width="5.30566" height="12.9693" rx="2.65283" transform="rotate(-30.4458 104.657 174.414)" fill="white" stroke="black" stroke-width="1.4"/>
<rect x="-0.977437" y="0.156896" width="6.07631" height="14.6207" rx="3.03816" transform="matrix(-0.810238 -0.586101 -0.586101 0.810238 224.495 185.921)" fill="white" stroke="black" stroke-width="1.4"/>
<path d="M233.818 2.5L212.595 52.0212L266.618 39.1586L233.818 2.5Z" stroke="black" stroke-width="1.4"/>
<rect x="157.02" y="184.446" width="24.9132" height="43.1507" rx="12.4566" transform="rotate(-22.6006 157.02 184.446)" fill="white" stroke="black" stroke-width="1.4"/>
<path d="M185.168 174.194C185.257 172.492 186.908 171.484 188.422 172.208C189.164 172.563 189.712 173.275 189.882 174.105L190.719 178.201C191.348 181.282 190.629 184.412 188.765 186.706L185.617 190.58C184.898 191.464 183.706 191.754 182.622 191.307C180.723 190.525 180.107 187.982 181.463 186.525L183.284 184.569C184.205 183.58 184.75 182.26 184.823 180.838L185.168 174.194Z" fill="white" stroke="black" stroke-width="1.4"/>
<path d="M157.185 177.356C158.998 177.818 159.684 179.842 158.504 181.243C158.008 181.831 157.261 182.191 156.466 182.227L153.676 182.351C150.527 182.492 147.611 180.973 146.146 178.429L144.586 175.721C144.067 174.821 144.154 173.711 144.811 172.861C146.144 171.136 148.958 171.354 149.858 173.253L150.172 173.915C150.737 175.106 151.845 175.993 153.204 176.34L157.185 177.356Z" fill="white" stroke="black" stroke-width="1.4"/>
<path d="M158.709 181.743C160.522 182.206 161.209 184.23 160.028 185.63C159.532 186.219 158.786 186.579 157.99 186.615L155.2 186.739C152.051 186.88 149.136 185.361 147.67 182.817L146.11 180.109C145.591 179.208 145.679 178.099 146.335 177.248C147.668 175.523 150.482 175.742 151.382 177.64L151.696 178.303C152.261 179.494 153.37 180.381 154.728 180.727L158.709 181.743Z" fill="white" stroke="black" stroke-width="1.4"/>
<path d="M161.13 187.295C162.943 187.758 163.63 189.782 162.449 191.182C161.953 191.77 161.206 192.131 160.411 192.166L157.621 192.291C154.472 192.431 151.556 190.913 150.091 188.369L148.531 185.661C148.012 184.76 148.099 183.651 148.756 182.8C150.089 181.075 152.903 181.294 153.803 183.192L154.117 183.855C154.682 185.046 155.79 185.932 157.149 186.279L161.13 187.295Z" fill="white" stroke="black" stroke-width="1.4"/>
<path d="M163.925 193.166C165.443 193.553 166.018 195.248 165.029 196.421C164.614 196.913 163.989 197.215 163.323 197.245L160.889 197.354C158.178 197.475 155.668 196.167 154.406 193.977L153.046 191.615C152.61 190.858 152.683 189.926 153.235 189.211C154.355 187.762 156.72 187.945 157.476 189.541L157.75 190.119C158.254 191.18 159.242 191.971 160.453 192.28L163.925 193.166Z" fill="white" stroke="black" stroke-width="1.4"/>
<rect x="156.512" y="181.842" width="24.9132" height="24.9785" rx="12.4566" transform="rotate(-22.6006 156.512 181.842)" fill="white" stroke="black" stroke-width="1.4"/>
<rect x="146.893" y="159.06" width="26.2925" height="37.2017" transform="rotate(-22.6006 146.893 159.06)" fill="#47DB99" stroke="black" stroke-width="1.4"/>
<path d="M145.158 157.649L170.724 147.007" stroke="white" stroke-width="1.4" stroke-linecap="round"/>
<rect x="151.61" y="157.185" width="16.7833" height="20.9792" transform="rotate(-22.6006 151.61 157.185)" fill="black"/>
<circle cx="161.614" cy="159.383" r="3.49583" transform="rotate(-22.6006 161.614 159.383)" fill="black" stroke="white" stroke-width="1.4"/>
<circle cx="165.162" cy="167.905" r="3.49583" transform="rotate(-22.6006 165.162 167.905)" fill="black" stroke="white" stroke-width="1.4"/>
<circle cx="161.615" cy="159.383" r="0.978334" transform="rotate(-22.6006 161.615 159.383)" fill="black" stroke="white" stroke-width="1.4"/>
<circle cx="165.163" cy="167.904" r="0.978334" transform="rotate(-22.6006 165.163 167.904)" fill="black" stroke="white" stroke-width="1.4"/>
<rect x="177.592" y="176.026" width="4.47417" height="2.79583" transform="rotate(-22.6006 177.592 176.026)" fill="white" stroke="black" stroke-width="1.4"/>
<rect x="180.258" y="182.388" width="4.47417" height="2.79583" transform="rotate(-22.6006 180.258 182.388)" fill="white" stroke="black" stroke-width="1.4"/>
<rect x="178.882" y="179.124" width="4.47417" height="2.79583" transform="rotate(-22.6006 178.882 179.124)" fill="white" stroke="black" stroke-width="1.4"/>
<rect x="181.065" y="177.457" width="2.5175" height="4.19583" transform="rotate(-22.6006 181.065 177.457)" fill="black"/>
<path d="M158.558 178.184C160.152 179.162 162.083 178.245 162.265 176.423C162.342 175.657 162.081 174.871 161.552 174.275L159.698 172.186C157.606 169.829 154.486 168.794 151.64 169.514L148.61 170.281C147.602 170.535 146.867 171.371 146.714 172.435C146.404 174.592 148.521 176.459 150.51 175.783L151.204 175.547C152.452 175.123 153.861 175.301 155.055 176.034L158.558 178.184Z" fill="white" stroke="black" stroke-width="1.4"/>
<path d="M160.23 183.409C161.824 184.388 163.755 183.471 163.938 181.648C164.014 180.883 163.753 180.096 163.225 179.501L161.371 177.411C159.279 175.054 156.158 174.02 153.312 174.74L150.282 175.506C149.275 175.761 148.539 176.596 148.387 177.66C148.077 179.818 150.193 181.685 152.182 181.009L152.877 180.773C154.125 180.348 155.533 180.526 156.728 181.26L160.23 183.409Z" fill="white" stroke="black" stroke-width="1.4"/>
<path d="M161.62 188.828C163.214 189.807 165.145 188.89 165.328 187.067C165.405 186.302 165.143 185.515 164.615 184.92L162.761 182.83C160.669 180.473 157.548 179.439 154.702 180.159L151.673 180.925C150.665 181.18 149.93 182.015 149.777 183.079C149.467 185.237 151.583 187.104 153.572 186.428L154.267 186.192C155.515 185.767 156.923 185.945 158.118 186.679L161.62 188.828Z" fill="white" stroke="black" stroke-width="1.4"/>
<path d="M163.836 192.412C165.29 192.995 166.755 191.966 166.648 190.436C166.604 189.794 166.277 189.181 165.757 188.764L163.856 187.24C161.739 185.543 158.941 185.117 156.63 186.14L154.138 187.244C153.339 187.598 152.849 188.394 152.872 189.297C152.921 191.128 154.938 192.375 156.49 191.533L157.053 191.229C158.086 190.669 159.35 190.614 160.51 191.079L163.836 192.412Z" fill="white" stroke="black" stroke-width="1.4"/>
<path d="M87.5389 151.819L57.542 185.435" stroke="black" stroke-width="1.4" stroke-linecap="round"/>
<path d="M244.329 134.969L288.44 144.139" stroke="black" stroke-width="1.4" stroke-linecap="round"/>
<path d="M69.567 130.958L33.4735 144.615" stroke="black" stroke-width="1.4" stroke-linecap="round"/>
<path d="M76.4338 151.426L72.3578 150.79L71.7218 154.866L67.6454 154.23L67.0094 158.306L62.9331 157.67L62.2971 161.747L58.2207 161.111L57.5847 165.187L53.5084 164.551L52.8724 168.627L48.7961 167.991L48.1601 172.067L44.0837 171.431L43.4477 175.508L39.3714 174.872" stroke="#2C73FB" stroke-width="1.4" stroke-linecap="round"/>
<path d="M240.834 147.166L241.184 151.277L245.295 150.926L245.645 155.037L249.756 154.687L250.106 158.798L254.217 158.447L254.567 162.558L258.678 162.208L259.028 166.319L263.139 165.968L263.489 170.079L267.6 169.729L267.95 173.84L272.061 173.49L272.411 177.6" stroke="#FF3366" stroke-width="1.4" stroke-linecap="round"/>
<circle cx="224.875" cy="22.0796" r="7.92157" fill="white" stroke="black" stroke-width="1.4"/>
<path d="M284.005 83.7858H270.054V65.0488H292.074V91.3079L284.005 83.7858Z" fill="#FF4B78"/>
<path d="M37.5692 110.486H51.5198V91.749H29.5V118.008L37.5692 110.486Z" fill="#2C73FB"/>
<path d="M238.887 60.9104L233.973 57.8662V63.6501L238.887 66.4768V60.9104Z" fill="black"/>
<path d="M243.764 57.9083L239.375 55.2412L234.986 57.9083L239.375 60.7743M243.764 57.9083L239.375 60.7743M243.764 57.9083V63.1229L239.375 65.5511V60.7743" stroke="black" stroke-width="1.4"/>
<path d="M45.7844 15.2591L53.9604 55.0241L106.733 51.6794L101.53 6.33984L45.7844 15.2591Z" fill="black"/>
<path d="M79.0885 42.1375L40.5061 24.2622L42.8069 62.4907L112.007 58.42V19.3066L79.0885 42.1375Z" fill="white" stroke="black" stroke-width="1.4" stroke-linecap="round"/>
<path d="M57.6785 19.8259L93.1477 14.4189" stroke="white" stroke-width="1.4" stroke-linecap="round"/>
<path d="M58.5234 24.7136L93.9927 19.3066" stroke="white" stroke-width="1.4" stroke-linecap="round"/>
<path d="M58.5234 30.1208L93.9927 24.7139" stroke="white" stroke-width="1.4" stroke-linecap="round"/>
<circle cx="60.6146" cy="35.3341" r="8.39484" fill="white" stroke="black" stroke-width="1.4"/>
<path d="M58.1755 32.5527L63.3767 37.7541" stroke="black" stroke-width="1.4" stroke-linecap="round"/>
<path d="M63.3767 32.5527L58.1755 37.7541" stroke="black" stroke-width="1.4" stroke-linecap="round"/>
</svg>
