<svg width="321" height="241" viewBox="0 0 321 241" fill="none" xmlns="http://www.w3.org/2000/svg">
<path d="M102.663 220.737L120.288 220.527L120.497 227.641L105.486 227.722L102.663 220.737Z" fill="white"/>
<rect x="236.91" y="225.619" width="37.1057" height="2.03592" fill="white"/>
<path fill-rule="evenodd" clip-rule="evenodd" d="M96.7317 148.878C96.7317 169.524 113.468 186.262 134.113 186.262C154.757 186.262 171.494 169.524 171.494 148.878C171.494 128.232 154.757 111.494 134.113 111.494C113.468 111.494 96.7317 128.232 96.7317 148.878ZM134.113 89.5039C101.324 89.5039 74.7429 116.087 74.7429 148.878C74.7429 181.669 101.324 208.252 134.113 208.252C166.902 208.252 193.482 181.669 193.482 148.878C193.482 116.087 166.902 89.5039 134.113 89.5039Z" fill="#E4ECF4"/>
<path d="M52.6694 72.2647C37.5374 68.2098 28.5573 52.6547 32.612 37.5216C36.6666 22.3884 52.2204 13.4077 67.3525 17.4626C82.4845 21.5175 91.4645 37.0725 87.4099 52.2057C83.3553 67.3389 67.8015 76.3196 52.6694 72.2647Z" fill="#E4ECF4"/>
<path d="M32.6129 37.522C34.2357 31.4651 37.8195 26.1167 42.8039 22.3127C47.7884 18.5087 53.8927 16.4635 60.1627 16.4968L60.0119 44.8641L32.6129 37.522Z" fill="#2C73FB"/>
<path d="M116.632 68.7233C107.341 66.2337 101.828 56.6836 104.317 47.3925C106.807 38.1015 116.356 32.5877 125.647 35.0773C134.937 37.5668 140.45 47.1169 137.961 56.408C135.472 65.699 125.922 71.2128 116.632 68.7233Z" fill="#F4E4E4"/>
<path d="M125.942 35.1589C130.381 36.4324 134.133 39.4176 136.372 43.4577L121.14 51.9004L125.942 35.1589Z" fill="#FF4B78"/>
<path d="M273.216 208.384C258.084 204.329 249.104 188.774 253.158 173.641C257.213 158.508 272.767 149.527 287.899 153.582C303.031 157.637 312.011 173.192 307.956 188.325C303.901 203.458 288.348 212.439 273.216 208.384Z" fill="#F4E4E4"/>
<path d="M273.215 208.384C267.796 206.932 262.929 203.905 259.23 199.687C255.531 195.469 253.166 190.248 252.434 184.686C251.701 179.123 252.635 173.468 255.116 168.436C257.598 163.404 261.515 159.221 266.374 156.416L280.557 180.983L273.215 208.384Z" fill="#FF4B78"/>
<path d="M217.168 208.189C207.974 205.726 202.517 196.274 204.981 187.079C207.444 177.883 216.895 172.426 226.09 174.89C235.285 177.354 240.741 186.806 238.277 196.001C235.814 205.196 226.363 210.653 217.168 208.189Z" fill="#E4ECF4"/>
<path d="M238.863 191.54C238.863 194.949 237.852 198.281 235.959 201.116C234.065 203.951 231.373 206.16 228.223 207.464C225.074 208.769 221.609 209.11 218.265 208.445C214.922 207.78 211.851 206.139 209.44 203.728C207.03 201.317 205.388 198.246 204.723 194.902C204.058 191.559 204.4 188.093 205.704 184.943C207.009 181.794 209.218 179.102 212.052 177.208C214.886 175.314 218.219 174.303 221.628 174.303V191.54H238.863Z" fill="#47DB99"/>
<path d="M121.36 218.701C121.36 215.786 123.722 213.423 126.637 213.423H130.155C133.07 213.423 135.432 215.786 135.432 218.701V222.219H121.36V218.701Z" fill="white"/>
<path fill-rule="evenodd" clip-rule="evenodd" d="M130.155 214.302H126.637C124.208 214.302 122.239 216.272 122.239 218.701V221.339H134.553V218.701C134.553 216.272 132.584 214.302 130.155 214.302ZM126.637 213.423C123.722 213.423 121.36 215.786 121.36 218.701V222.219H135.432V218.701C135.432 215.786 133.07 213.423 130.155 213.423H126.637Z" fill="black"/>
<path fill-rule="evenodd" clip-rule="evenodd" d="M69.6045 107.28C72.5567 104.735 76.5931 105.513 78.3452 108.934C80.0114 112.186 78.9764 116.615 76.0203 118.769L62.8151 128.394L74.965 137.129C76.7889 138.44 77.6489 140.92 77.0254 143.07C76.2517 145.737 73.5227 146.882 71.1281 145.543L51.8354 134.76C48.962 133.154 47.5966 129.364 48.7858 126.294C48.9373 125.903 49.1224 125.544 49.3359 125.216C49.6881 124.614 50.1339 124.066 50.6667 123.607L69.6045 107.28Z" fill="white"/>
<path fill-rule="evenodd" clip-rule="evenodd" d="M61.3151 128.398L74.4516 137.843C75.9746 138.938 76.6999 141.034 76.1806 142.825C75.5606 144.962 73.4453 145.831 71.5572 144.775L52.2645 133.993C49.7737 132.6 48.5751 129.273 49.6059 126.612L48.7858 126.294C47.5966 129.364 48.962 133.154 51.8354 134.76L71.1281 145.543C73.5227 146.882 76.2517 145.737 77.0254 143.07C77.6489 140.92 76.7889 138.44 74.965 137.129L62.8151 128.394L76.0203 118.769C78.9764 116.615 80.0114 112.186 78.3452 108.934C76.5931 105.513 72.5567 104.735 69.6045 107.28L50.6667 123.607C50.1339 124.066 49.6881 124.614 49.3359 125.216C49.1224 125.544 48.9373 125.903 48.7858 126.294L49.6059 126.612C49.7359 126.277 49.8932 125.972 50.0724 125.697L50.0843 125.679L50.0952 125.66C50.4016 125.136 50.7863 124.665 51.241 124.273L70.1788 107.946C71.4649 106.837 72.9434 106.483 74.2604 106.734C75.5769 106.984 76.8033 107.853 77.5624 109.335C79.033 112.205 78.1055 116.161 75.5023 118.058L61.3151 128.398Z" fill="black"/>
<path d="M71.401 112.302C72.5092 100.336 87.5627 95.0434 97.2598 104.018C106.957 112.992 97.2598 157.403 97.2598 157.403C93.1039 159.167 71.401 161.085 71.401 161.085C71.401 161.085 70.0157 127.259 71.401 112.302Z" fill="black"/>
<path fill-rule="evenodd" clip-rule="evenodd" d="M71.8386 112.342C72.9077 100.799 87.4866 95.5725 96.9608 104.341C98.096 105.391 98.9741 106.988 99.6247 109.022C100.274 111.053 100.687 113.489 100.912 116.182C101.363 121.569 101.063 127.931 100.458 134.032C99.8536 140.13 98.9464 145.95 98.19 150.247C97.8119 152.396 97.4716 154.162 97.226 155.391C97.1031 156.006 97.004 156.486 96.9356 156.812C96.9133 156.918 96.8943 157.008 96.8787 157.081C95.8285 157.474 93.8509 157.887 91.3949 158.289C88.7852 158.715 85.6901 159.119 82.7202 159.469C79.7512 159.818 76.9113 160.113 74.8135 160.32C73.7646 160.424 72.9015 160.505 72.3007 160.561C72.1153 160.578 71.955 160.593 71.8218 160.605C71.8122 160.358 71.7991 160.015 71.7833 159.586C71.7482 158.633 71.6995 157.254 71.6454 155.552C71.5372 152.149 71.4074 147.455 71.3209 142.295C71.1477 131.966 71.1485 119.793 71.8386 112.342ZM71.4007 161.085C70.9613 161.103 70.9613 161.103 70.9612 161.103L70.9612 161.101L70.9573 161.005C70.9547 160.94 70.9509 160.844 70.946 160.719C70.9362 160.467 70.922 160.096 70.9044 159.618C70.8692 158.664 70.8205 157.283 70.7663 155.58C70.658 152.173 70.5281 147.475 70.4415 142.31C70.2684 131.986 70.2676 119.767 70.9628 112.261C72.1101 99.8729 87.6383 94.5145 97.5582 103.695C98.8472 104.888 99.7873 106.643 100.462 108.754C101.139 110.87 101.56 113.376 101.789 116.109C102.246 121.573 101.941 127.996 101.333 134.119C100.726 140.246 99.815 146.089 99.0562 150.4C98.6768 152.556 98.3352 154.329 98.0884 155.564C97.965 156.181 97.8653 156.664 97.7964 156.992C97.762 157.157 97.7352 157.283 97.717 157.368L97.6963 157.464L97.6893 157.496C97.6892 157.497 97.6891 157.497 97.2595 157.403L97.6891 157.497L97.6406 157.719L97.4313 157.808C96.335 158.273 94.145 158.731 91.5367 159.157C88.9082 159.586 85.7984 159.992 82.823 160.342C79.8468 160.693 77.0012 160.988 74.8999 161.195C73.8492 161.299 72.9843 161.381 72.382 161.437C72.0809 161.465 71.8454 161.486 71.6851 161.501L71.4404 161.523L71.4397 161.523C71.4395 161.523 71.4394 161.523 71.4007 161.085ZM71.4007 161.085L71.4397 161.523L70.9801 161.564L70.9612 161.103L71.4007 161.085Z" fill="black"/>
<path d="M74.8523 88.707C74.5234 86.7918 75.8093 84.9726 77.7243 84.6437L84.3289 83.5094C86.2439 83.1805 88.0629 84.4665 88.3918 86.3816L90.7287 99.9904C91.0576 101.906 89.7717 103.725 87.8567 104.054L81.2521 105.188C79.3371 105.517 77.5181 104.231 77.1892 102.316L74.8523 88.707Z" fill="white"/>
<path fill-rule="evenodd" clip-rule="evenodd" d="M84.4778 84.3764L77.8731 85.5107C76.4369 85.7573 75.4725 87.1217 75.7192 88.5581L78.0561 102.167C78.3027 103.603 79.667 104.568 81.1033 104.321L87.7079 103.187C89.1441 102.94 90.1085 101.576 89.8618 100.139L87.5249 86.5305C87.2783 85.0941 85.914 84.1297 84.4778 84.3764ZM77.7243 84.6437C75.8093 84.9726 74.5234 86.7918 74.8523 88.707L77.1892 102.316C77.5181 104.231 79.3371 105.517 81.2521 105.188L87.8567 104.054C89.7717 103.725 91.0576 101.906 90.7287 99.9904L88.3918 86.3816C88.0629 84.4665 86.2439 83.1805 84.3289 83.5094L77.7243 84.6437Z" fill="black"/>
<path fill-rule="evenodd" clip-rule="evenodd" d="M88.4496 72.6164C88.3627 72.8432 88.4762 73.0975 88.703 73.1844L95.893 75.9389L91.9734 79.7527C91.7993 79.9221 91.7955 80.2005 91.9648 80.3746C92.1342 80.5487 92.4126 80.5525 92.5867 80.3831L97.4926 75.6098L89.0176 72.363C88.7908 72.2761 88.5365 72.3895 88.4496 72.6164Z" fill="black"/>
<path d="M66.4103 81.0584C62.4504 72.0322 66.4223 65.9483 72.9926 63.1171C93.0276 54.4839 93.3826 78.5197 95.2372 84.2805C97.4746 91.2301 87.2647 95.9647 80.4855 96.4105C73.7063 96.8563 71.3602 92.3411 66.4103 81.0584Z" fill="white"/>
<path fill-rule="evenodd" clip-rule="evenodd" d="M65.3514 69.5876C66.7272 66.4557 69.4632 64.1595 72.8199 62.7131C77.8943 60.5265 81.7988 60.3766 84.8217 61.5621C87.8405 62.746 89.8881 65.226 91.3273 68.1043C92.7659 70.9816 93.6194 74.3018 94.2285 77.24C94.4485 78.3012 94.638 79.3197 94.8111 80.25C94.8776 80.6075 94.9416 80.952 95.0041 81.2809C95.2312 82.4764 95.4351 83.4555 95.6572 84.1456C96.8661 87.9006 94.6724 90.9987 91.4901 93.1488C88.299 95.3048 83.975 96.6218 80.5157 96.8493C78.7699 96.9641 77.2795 96.7612 75.9502 96.1905C74.6206 95.6197 73.4836 94.6944 72.4243 93.4128C70.3242 90.8719 68.4757 86.8577 66.009 81.235C63.9914 76.6361 63.9719 72.7278 65.3514 69.5876ZM66.1567 69.9414C64.8975 72.8076 64.8721 76.4543 66.8144 80.8816C69.2976 86.5417 71.0971 90.4264 73.1022 92.8524C74.0956 94.0541 75.1256 94.8792 76.2972 95.3822C77.4692 95.8854 78.8142 96.0797 80.458 95.9716C83.7779 95.7533 87.9485 94.4801 90.9978 92.4199C94.0559 90.3538 95.8485 87.6098 94.82 84.4152C94.5785 83.665 94.3656 82.6329 94.14 81.445C94.0764 81.1101 94.0116 80.762 93.9447 80.4023C93.7722 79.4747 93.5853 78.4703 93.3673 77.4185C92.7621 74.4995 91.9269 71.2702 90.5406 68.4977C89.1548 65.7261 87.2411 63.4558 84.5006 62.381C81.7641 61.3078 78.1111 61.3909 73.168 63.5209C69.9545 64.9056 67.4194 67.067 66.1567 69.9414Z" fill="black"/>
<path d="M91.0985 69.1856C88.597 69.2354 86.5932 73.3961 85.8958 73.769C85.1984 74.1419 84.5333 73.2833 83.2772 73.5135C81.707 73.8012 81.5206 77.9715 84.666 79.6011C85.2229 79.8896 84.666 85.9694 84.666 85.9694C83.7876 89.5245 71.8588 91.4659 72.072 92.0003C72.0762 92.0077 72.0784 92.0115 72.0784 92.0115C72.0756 92.0078 72.0735 92.0041 72.072 92.0003C71.8864 91.6761 67.7359 84.4218 66.9319 82.6126C63.9218 75.8396 64.7204 67.7408 69.8408 64.9337C74.9612 62.1265 79.2786 61.1383 84.1619 61.8006C87.4617 62.2481 91.0666 68.0068 91.0985 69.1856Z" fill="black"/>
<path fill-rule="evenodd" clip-rule="evenodd" d="M71.6655 66.5268C71.5283 66.109 71.5281 66.1091 71.5279 66.1091L71.5274 66.1093L71.5263 66.1096L71.5232 66.1107L71.5137 66.1139C71.506 66.1166 71.4954 66.1203 71.4821 66.1251C71.4554 66.1346 71.4179 66.1486 71.3708 66.1672C71.2765 66.2044 71.1434 66.2605 70.9811 66.3381C70.6569 66.4931 70.214 66.735 69.7309 67.086C68.7647 67.7881 67.629 68.9332 66.9717 70.6954C66.3178 72.4481 66.2878 74.4119 66.5206 76.0909C66.7522 77.7618 67.2537 79.2172 67.7248 79.9573C67.8553 80.1622 68.1271 80.2225 68.332 80.0921C68.5369 79.9617 68.5972 79.6898 68.4668 79.4849C68.088 78.8899 67.6137 77.5708 67.3918 75.9702C67.1711 74.3777 67.21 72.5731 67.7957 71.0028C68.378 69.442 69.3831 68.426 70.2479 67.7977C70.6804 67.4835 71.0755 67.2679 71.3604 67.1317C71.5027 67.0637 71.617 67.0157 71.6939 66.9853C71.7323 66.9701 71.7614 66.9594 71.78 66.9527C71.7892 66.9494 71.7959 66.947 71.7997 66.9457L71.803 66.9446L71.8032 66.9445C71.8033 66.9445 71.8034 66.9445 71.8035 66.9444C72.0338 66.8683 72.159 66.6201 72.0833 66.3896C72.0075 66.1588 71.759 66.0332 71.5283 66.109L71.6655 66.5268Z" fill="white"/>
<path fill-rule="evenodd" clip-rule="evenodd" d="M94.7008 82.8327C94.9256 82.9246 95.0332 83.1814 94.9413 83.4063C94.7842 83.7903 94.2298 84.5592 93.2149 84.5592C92.3633 84.5592 91.7984 84.2722 91.572 84.0263C91.4075 83.8475 91.4191 83.5693 91.5978 83.4048C91.7765 83.2403 92.0547 83.2518 92.2192 83.4306C92.2191 83.4304 92.2192 83.4306 92.2197 83.431C92.2267 83.437 92.299 83.4985 92.4657 83.5605C92.6335 83.623 92.8812 83.6795 93.2149 83.6795C93.7353 83.6795 94.0444 83.2756 94.1272 83.0732C94.2192 82.8484 94.476 82.7407 94.7008 82.8327Z" fill="black"/>
<path d="M90.1402 74.4993C90.3704 75.3333 90.3639 76.0627 90.1256 76.1284C89.8874 76.1942 89.5076 75.5715 89.2774 74.7375C89.0472 73.9036 89.0537 73.1742 89.292 73.1084C89.5302 73.0427 89.91 73.6654 90.1402 74.4993Z" fill="black"/>
<path d="M70.8057 160.426C70.8057 155.933 74.4482 152.29 78.9415 152.29C83.4348 152.29 87.0774 155.933 87.0774 160.426V190.333C87.0774 194.827 83.4348 198.47 78.9415 198.47C74.4482 198.47 70.8057 194.827 70.8057 190.333V160.426Z" fill="black"/>
<path d="M108.607 178.458C108.607 173.964 112.25 170.321 116.743 170.321C121.236 170.321 124.879 173.964 124.879 178.458V207.925C124.879 212.419 121.236 216.061 116.743 216.061C112.25 216.061 108.607 212.419 108.607 207.925V178.458Z" fill="black"/>
<path d="M86.7484 170.503C82.8476 168.251 81.511 163.262 83.7632 159.361C86.0154 155.46 91.0034 154.123 94.9042 156.376L120.508 171.159C124.409 173.412 125.746 178.4 123.493 182.301C121.241 186.202 116.253 187.539 112.352 185.287L86.7484 170.503Z" fill="black"/>
<path d="M70.8057 189.893C70.8057 185.4 74.4482 181.757 78.9415 181.757C83.4348 181.757 87.0774 185.4 87.0774 189.893V219.8C87.0774 224.294 83.4348 227.937 78.9415 227.937C74.4482 227.937 70.8057 224.294 70.8057 219.8V189.893Z" fill="black"/>
<path fill-rule="evenodd" clip-rule="evenodd" d="M83.0758 166.309C83.3095 166.242 83.5527 166.378 83.619 166.612C84.1597 168.517 85.531 169.836 87.5789 170.986C87.7906 171.105 87.8659 171.373 87.7469 171.585C87.628 171.797 87.3599 171.872 87.1481 171.753C85.0012 170.547 83.4034 169.074 82.7729 166.852C82.7065 166.618 82.8422 166.375 83.0758 166.309Z" fill="#E4ECF4"/>
<path d="M93.0686 143.545C93.1059 142.302 94.1393 141.395 95.3766 141.52C96.6139 141.645 97.5867 142.754 97.5493 143.998L97.3235 151.509C97.2862 152.752 96.2528 153.658 95.0155 153.533C93.7782 153.408 92.8054 152.299 92.8428 151.056L93.0686 143.545Z" fill="white"/>
<path fill-rule="evenodd" clip-rule="evenodd" d="M96.4484 151.42L96.6742 143.909C96.697 143.152 96.1042 142.476 95.3502 142.4C94.5962 142.323 93.9664 142.876 93.9437 143.633L93.7179 151.144C93.6951 151.902 94.2879 152.578 95.0419 152.654C95.796 152.73 96.4257 152.178 96.4484 151.42ZM95.3766 141.52C94.1393 141.395 93.1059 142.302 93.0686 143.545L92.8428 151.056C92.8054 152.299 93.7782 153.408 95.0155 153.533C96.2528 153.658 97.2862 152.752 97.3235 151.509L97.5493 143.998C97.5867 142.754 96.6139 141.645 95.3766 141.52Z" fill="black"/>
<path d="M105.088 214.05C105.088 210.75 108.082 208.259 111.327 208.86L116.001 209.726C116.637 209.844 117.288 209.844 117.923 209.726L122.598 208.86C125.842 208.259 128.836 210.75 128.836 214.05V222.219H105.088V214.05Z" fill="#FF4B78"/>
<path fill-rule="evenodd" clip-rule="evenodd" d="M127.957 221.339V214.05C127.957 211.3 125.462 209.225 122.758 209.725L118.083 210.591C117.342 210.728 116.582 210.728 115.841 210.591L111.166 209.725C108.463 209.225 105.968 211.3 105.968 214.05V221.339H127.957ZM111.327 208.86C108.082 208.259 105.088 210.75 105.088 214.05V222.219H128.836V214.05C128.836 210.75 125.842 208.259 122.598 208.86L117.923 209.726C117.288 209.844 116.637 209.844 116.001 209.726L111.327 208.86Z" fill="black"/>
<path d="M82.4968 231.454C82.4968 228.54 84.8596 226.177 87.7741 226.177H91.2923C94.2069 226.177 96.5696 228.54 96.5696 231.454V234.973H82.4968V231.454Z" fill="white"/>
<path fill-rule="evenodd" clip-rule="evenodd" d="M91.7243 59.1955C92.0891 59.723 92.2309 60.4335 92.1112 61.3317C91.9255 62.7243 90.6655 63.3599 89.3909 63.527C88.0991 63.6965 86.5816 63.4316 85.4696 62.8357C84.7547 62.4953 84.1092 62.2906 83.5745 62.1211C83.4354 62.0769 83.3038 62.0352 83.1805 61.9941C82.95 61.9173 82.8255 61.6682 82.9023 61.4378C82.9791 61.2073 83.2282 61.0828 83.4586 61.1596C83.5662 61.1955 83.6865 61.2335 83.8176 61.2751C84.3563 61.4456 85.078 61.6741 85.8579 62.0463L85.8676 62.0509L85.8771 62.056C86.8198 62.5641 88.1553 62.8019 89.2766 62.6549C90.4188 62.5051 91.1345 62.0021 91.2393 61.2155C91.3395 60.4645 91.2064 59.993 91.0009 59.6958C90.795 59.3982 90.4722 59.2114 90.0655 59.1185C89.6559 59.0248 89.1878 59.0339 88.7507 59.1094C88.3105 59.1854 87.9397 59.322 87.7237 59.4517C87.5154 59.5767 87.2453 59.5091 87.1203 59.3008C86.9953 59.0926 87.0629 58.8224 87.2711 58.6974C87.6048 58.4972 88.086 58.3315 88.601 58.2426C89.1191 58.1531 89.7092 58.1347 90.2615 58.261C90.8169 58.3879 91.3598 58.6685 91.7243 59.1955Z" fill="black"/>
<path d="M72.9851 159.434H79.5817V162.732C79.5817 164.554 78.105 166.031 76.2834 166.031C74.4618 166.031 72.9851 164.554 72.9851 162.732V159.434Z" fill="black"/>
<path fill-rule="evenodd" clip-rule="evenodd" d="M78.7022 160.313H73.8647V162.732C73.8647 164.068 74.9476 165.151 76.2834 165.151C77.6193 165.151 78.7022 164.068 78.7022 162.732V160.313ZM72.9851 159.434V162.732C72.9851 164.554 74.4618 166.031 76.2834 166.031C78.105 166.031 79.5817 164.554 79.5817 162.732V159.434H72.9851Z" fill="white"/>
<path d="M86.6187 159.326H93.2153V162.625C93.2153 164.446 91.7386 165.923 89.917 165.923C88.0954 165.923 86.6187 164.446 86.6187 162.625V159.326Z" fill="black"/>
<path fill-rule="evenodd" clip-rule="evenodd" d="M92.3357 160.206H87.4982V162.625C87.4982 163.961 88.5811 165.044 89.917 165.044C91.2528 165.044 92.3357 163.961 92.3357 162.625V160.206ZM86.6187 159.326V162.625C86.6187 164.446 88.0954 165.923 89.917 165.923C91.7386 165.923 93.2153 164.446 93.2153 162.625V159.326H86.6187Z" fill="white"/>
<path fill-rule="evenodd" clip-rule="evenodd" d="M99.759 106.076C96.6496 103.844 92.2998 104.719 90.2941 107.979L89.3884 109.451C87.4709 112.568 88.4564 116.65 91.5847 118.548L109.904 129.665L95.6889 138.283C93.6219 139.536 92.7184 142.068 93.5253 144.347C94.5294 147.182 97.7568 148.537 100.484 147.268L124.604 136.044C127.372 134.756 128.818 131.781 128.288 128.912C128.055 127.288 127.184 125.763 125.755 124.737L99.759 106.076Z" fill="white"/>
<path fill-rule="evenodd" clip-rule="evenodd" d="M111.6 129.665L96.1449 139.035C94.4344 140.072 93.6867 142.167 94.3544 144.053C95.1854 146.399 97.8561 147.521 100.113 146.471L124.233 135.246C126.628 134.131 127.882 131.556 127.423 129.072L127.42 129.055L127.417 129.037C127.217 127.641 126.469 126.333 125.242 125.452L99.2461 106.791C96.5514 104.857 92.7815 105.614 91.0432 108.44L90.1375 109.912C88.4757 112.613 89.3298 116.151 92.041 117.796L111.6 129.665ZM95.6889 138.283C93.6219 139.536 92.7184 142.068 93.5253 144.347C94.5294 147.182 97.7568 148.537 100.484 147.268L124.604 136.044C127.372 134.756 128.818 131.781 128.288 128.912C128.055 127.288 127.184 125.763 125.755 124.737L99.759 106.076C96.6496 103.844 92.2998 104.719 90.2941 107.979L89.3884 109.451C87.4709 112.568 88.4564 116.65 91.5847 118.548L109.904 129.665L95.6889 138.283Z" fill="black"/>
<path d="M100.175 148.678C101.2 148.121 102.379 148.788 102.376 149.924C102.375 150.521 102.031 151.087 101.492 151.38L100.233 152.065C99.2151 152.619 98.0351 152.7 97.0193 152.286L95.7593 151.772C95.2195 151.552 94.8764 151.03 94.878 150.43C94.8809 149.294 96.0617 148.462 97.0872 148.875L97.7986 149.161C98.3409 149.379 98.9693 149.335 99.5116 149.039L100.175 148.678Z" fill="white"/>
<path fill-rule="evenodd" clip-rule="evenodd" d="M99.8582 151.297L101.118 150.611C101.35 150.485 101.498 150.241 101.499 149.984C101.5 149.494 100.992 149.207 100.55 149.447L99.8864 149.808C99.1069 150.232 98.2036 150.296 97.424 149.983L96.7126 149.696C96.2683 149.518 95.7567 149.878 95.7555 150.37C95.7548 150.63 95.9034 150.857 96.1373 150.952L97.3973 151.466C98.1752 151.783 99.0788 151.721 99.8582 151.297ZM102.376 149.924C102.379 148.788 101.2 148.121 100.175 148.678L99.5116 149.039C98.9693 149.335 98.3409 149.379 97.7986 149.161L97.0872 148.875C96.0617 148.462 94.8809 149.294 94.878 150.43C94.8764 151.03 95.2195 151.552 95.7593 151.772L97.0193 152.286C98.0351 152.7 99.2151 152.619 100.233 152.065L101.492 151.38C102.031 151.087 102.375 150.521 102.376 149.924Z" fill="black"/>
<path d="M99.7585 151.21C100.783 150.652 101.962 151.319 101.959 152.455C101.958 153.052 101.614 153.619 101.076 153.911L99.8162 154.597C98.7983 155.15 97.6183 155.231 96.6025 154.817L95.3425 154.304C94.8027 154.083 94.4596 153.561 94.4612 152.962C94.4641 151.825 95.645 150.993 96.6705 151.406L97.3818 151.692C97.9242 151.91 98.5526 151.866 99.0948 151.571L99.7585 151.21Z" fill="white"/>
<path fill-rule="evenodd" clip-rule="evenodd" d="M99.4415 153.828L100.701 153.143C100.933 153.017 101.081 152.772 101.082 152.515C101.083 152.026 100.575 151.738 100.133 151.978L99.4696 152.339C98.6901 152.764 97.7868 152.828 97.0073 152.514L96.2959 152.228C95.8516 152.049 95.34 152.409 95.3387 152.902C95.338 153.161 95.4867 153.388 95.7205 153.483L96.9805 153.997C97.7584 154.314 98.662 154.252 99.4415 153.828ZM101.959 152.455C101.962 151.319 100.783 150.652 99.7585 151.21L99.0948 151.571C98.5526 151.866 97.9242 151.91 97.3818 151.692L96.6705 151.406C95.645 150.993 94.4641 151.825 94.4612 152.962C94.4596 153.561 94.8027 154.083 95.3425 154.304L96.6025 154.817C97.6183 155.231 98.7983 155.15 99.8162 154.597L101.076 153.911C101.614 153.619 101.958 153.052 101.959 152.455Z" fill="black"/>
<path d="M100.308 146.484C101.333 145.926 102.512 146.594 102.509 147.73C102.507 148.326 102.163 148.893 101.625 149.186L100.366 149.871C99.3479 150.425 98.1679 150.506 97.1521 150.092L95.8921 149.578C95.3523 149.358 95.0092 148.835 95.0108 148.236C95.0137 147.099 96.1945 146.268 97.22 146.68L97.9314 146.967C98.4737 147.185 99.1021 147.14 99.6444 146.845L100.308 146.484Z" fill="white"/>
<path fill-rule="evenodd" clip-rule="evenodd" d="M99.991 149.102L101.251 148.417C101.482 148.291 101.631 148.047 101.631 147.79C101.633 147.3 101.124 147.012 100.683 147.253L100.019 147.614C99.2397 148.038 98.3364 148.102 97.5568 147.788L96.8454 147.502C96.4011 147.323 95.8895 147.684 95.8883 148.176C95.8876 148.436 96.0362 148.662 96.2701 148.758L97.5301 149.271C98.308 149.588 99.2116 149.526 99.991 149.102ZM102.509 147.73C102.512 146.594 101.333 145.926 100.308 146.484L99.6444 146.845C99.1021 147.14 98.4737 147.185 97.9314 146.967L97.22 146.68C96.1945 146.268 95.0137 147.099 95.0108 148.236C95.0092 148.835 95.3523 149.358 95.8921 149.578L97.1521 150.092C98.1679 150.506 99.3479 150.425 100.366 149.871L101.625 149.186C102.163 148.893 102.507 148.326 102.509 147.73Z" fill="black"/>
<path d="M105.088 221.339H267.805C275.335 221.339 281.438 227.443 281.438 234.973H105.088V221.339Z" fill="white"/>
<path fill-rule="evenodd" clip-rule="evenodd" d="M281.41 234.093C281.429 234.384 281.438 234.677 281.438 234.973H105.088V221.339H267.805C275.039 221.339 280.957 226.973 281.41 234.093ZM280.529 234.093C280.077 227.46 274.553 222.218 267.805 222.218H105.968V234.093H280.529Z" fill="black"/>
<path d="M10.0969 79.8284C10.0969 77.6423 11.869 75.8701 14.0549 75.8701C16.2408 75.8701 18.0129 77.6423 18.0129 79.8284V101.819C18.0129 104.005 16.2408 105.777 14.0549 105.777C11.869 105.777 10.0969 104.005 10.0969 101.819V79.8284Z" fill="#2C73FB"/>
<path d="M21.5312 94.5616C21.5312 92.497 23.2049 90.8232 25.2693 90.8232C27.3338 90.8232 29.0074 92.497 29.0074 94.5616V102.038C29.0074 104.103 27.3338 105.777 25.2693 105.777C23.2049 105.777 21.5312 104.103 21.5312 102.038V94.5616Z" fill="#FF4B78"/>
<path d="M32.9653 86.6456C32.9653 84.581 34.6389 82.9072 36.7034 82.9072C38.7679 82.9072 40.4415 84.581 40.4415 86.6456V102.039C40.4415 104.104 38.7679 105.777 36.7034 105.777C34.6389 105.777 32.9653 104.104 32.9653 102.039V86.6456Z" fill="#47DB99"/>
<path d="M232.623 124.688C232.623 123.474 233.607 122.489 234.821 122.489C236.036 122.489 237.02 123.474 237.02 124.688V137.443C237.02 138.657 236.036 139.642 234.821 139.642C233.607 139.642 232.623 138.657 232.623 137.443V124.688Z" fill="#47DB99"/>
<path d="M255.051 122.05C255.051 120.593 256.233 119.411 257.69 119.411C259.147 119.411 260.329 120.593 260.329 122.05V137.003C260.329 138.461 259.147 139.642 257.69 139.642C256.233 139.642 255.051 138.461 255.051 137.003V122.05Z" fill="#E4ECF4"/>
<path d="M239.659 131.506C239.659 130.17 240.742 129.087 242.078 129.087C243.414 129.087 244.496 130.17 244.496 131.506V137.223C244.496 138.559 243.414 139.642 242.078 139.642C240.742 139.642 239.659 138.559 239.659 137.223V131.506Z" fill="#FF4B78"/>
<path d="M247.137 126.888C247.137 125.43 248.318 124.249 249.776 124.249C251.233 124.249 252.414 125.43 252.414 126.888V137.003C252.414 138.461 251.233 139.642 249.776 139.642C248.318 139.642 247.137 138.461 247.137 137.003V126.888Z" fill="#2C73FB"/>
<path d="M262.967 136.564C262.967 135.106 264.148 133.925 265.605 133.925C267.063 133.925 268.244 135.106 268.244 136.564V137.003C268.244 138.461 267.063 139.642 265.605 139.642C264.148 139.642 262.967 138.461 262.967 137.003V136.564Z" fill="#47DB99"/>
<path fill-rule="evenodd" clip-rule="evenodd" d="M287.156 125.128C287.156 124.885 287.352 124.688 287.595 124.688H315.301C315.544 124.688 315.741 124.885 315.741 125.128C315.741 125.371 315.544 125.568 315.301 125.568H287.595C287.352 125.568 287.156 125.371 287.156 125.128Z" fill="black"/>
<path fill-rule="evenodd" clip-rule="evenodd" d="M287.156 129.527C287.156 129.284 287.352 129.087 287.595 129.087H315.301C315.544 129.087 315.741 129.284 315.741 129.527C315.741 129.77 315.544 129.967 315.301 129.967H287.595C287.352 129.967 287.156 129.77 287.156 129.527Z" fill="black"/>
<path fill-rule="evenodd" clip-rule="evenodd" d="M287.156 133.924C287.156 133.681 287.352 133.484 287.595 133.484H315.301C315.544 133.484 315.741 133.681 315.741 133.924C315.741 134.167 315.544 134.364 315.301 134.364H287.595C287.352 134.364 287.156 134.167 287.156 133.924Z" fill="black"/>
<path fill-rule="evenodd" clip-rule="evenodd" d="M287.156 138.323C287.156 138.08 287.352 137.883 287.595 137.883H315.301C315.544 137.883 315.741 138.08 315.741 138.323C315.741 138.566 315.544 138.762 315.301 138.762H287.595C287.352 138.762 287.156 138.566 287.156 138.323Z" fill="black"/>
<path fill-rule="evenodd" clip-rule="evenodd" d="M287.156 162.512C287.156 162.269 287.352 162.072 287.595 162.072H315.301C315.544 162.072 315.741 162.269 315.741 162.512C315.741 162.755 315.544 162.952 315.301 162.952H287.595C287.352 162.952 287.156 162.755 287.156 162.512Z" fill="black"/>
<path fill-rule="evenodd" clip-rule="evenodd" d="M287.156 158.114C287.156 157.871 287.352 157.674 287.595 157.674H301.668C301.911 157.674 302.108 157.871 302.108 158.114C302.108 158.357 301.911 158.553 301.668 158.553H287.595C287.352 158.553 287.156 158.357 287.156 158.114Z" fill="black"/>
<path fill-rule="evenodd" clip-rule="evenodd" d="M287.156 171.308C287.156 171.065 287.352 170.868 287.595 170.868H315.301C315.544 170.868 315.741 171.065 315.741 171.308C315.741 171.551 315.544 171.748 315.301 171.748H287.595C287.352 171.748 287.156 171.551 287.156 171.308Z" fill="black"/>
<path fill-rule="evenodd" clip-rule="evenodd" d="M287.156 166.911C287.156 166.668 287.352 166.471 287.595 166.471H301.668C301.911 166.471 302.108 166.668 302.108 166.911C302.108 167.153 301.911 167.35 301.668 167.35H287.595C287.352 167.35 287.156 167.153 287.156 166.911Z" fill="black"/>
<path fill-rule="evenodd" clip-rule="evenodd" d="M287.156 92.1429C287.156 91.9 287.352 91.7031 287.595 91.7031H315.301C315.544 91.7031 315.741 91.9 315.741 92.1429C315.741 92.3858 315.544 92.5827 315.301 92.5827H287.595C287.352 92.5827 287.156 92.3858 287.156 92.1429Z" fill="black"/>
<path fill-rule="evenodd" clip-rule="evenodd" d="M287.156 96.5414C287.156 96.2985 287.352 96.1016 287.595 96.1016H315.301C315.544 96.1016 315.741 96.2985 315.741 96.5414C315.741 96.7843 315.544 96.9812 315.301 96.9812H287.595C287.352 96.9812 287.156 96.7843 287.156 96.5414Z" fill="black"/>
<path fill-rule="evenodd" clip-rule="evenodd" d="M287.156 100.939C287.156 100.696 287.352 100.499 287.595 100.499H301.668C301.911 100.499 302.108 100.696 302.108 100.939C302.108 101.182 301.911 101.379 301.668 101.379H287.595C287.352 101.379 287.156 101.182 287.156 100.939Z" fill="black"/>
<path fill-rule="evenodd" clip-rule="evenodd" d="M287.156 105.337C287.156 105.094 287.352 104.897 287.595 104.897H301.668C301.911 104.897 302.108 105.094 302.108 105.337C302.108 105.58 301.911 105.777 301.668 105.777H287.595C287.352 105.777 287.156 105.58 287.156 105.337Z" fill="black"/>
<path d="M36.9233 210.012H25.929L27.9079 234.641H46.1586L48.1376 210.012H36.9233Z" fill="white"/>
<path fill-rule="evenodd" clip-rule="evenodd" d="M25.4517 209.571H48.6134L46.5637 235.08H27.5013L25.4517 209.571ZM26.4047 210.451L28.313 234.201H45.752L47.6603 210.451H26.4047Z" fill="black"/>
<path d="M25.8529 195.457C25.8491 195.455 25.8454 195.454 25.8416 195.452C24.7589 195.025 17.2647 201.22 13.759 203.849C10.2408 206.488 6.3306 205.216 4.9636 203.849C3.42927 202.315 2.54484 197.912 10.4608 193.514C16.7936 189.995 23.3609 193.343 25.8529 195.457Z" fill="#47DB99"/>
<path fill-rule="evenodd" clip-rule="evenodd" d="M19.7005 191.946C22.4818 192.616 24.7836 193.988 26.0864 195.078C27.5199 195.693 29.0004 196.515 30.5007 197.55C35.7923 201.2 36.3431 207.413 35.9637 210.069L35.093 209.945C35.4466 207.469 34.9126 201.661 30.0014 198.274C28.5314 197.26 27.0895 196.463 25.7038 195.871C25.6936 195.872 25.6765 195.874 25.6509 195.879C25.577 195.893 25.4703 195.927 25.3273 195.988C25.0424 196.108 24.6692 196.312 24.2214 196.589C23.3288 197.14 22.1936 197.947 20.9721 198.857C19.7527 199.766 18.4567 200.771 17.2441 201.715C17.0979 201.829 16.9528 201.942 16.8092 202.054C15.7643 202.868 14.7973 203.621 14.0232 204.201C12.1678 205.593 10.1985 205.958 8.51116 205.789C6.83989 205.622 5.42008 204.927 4.65303 204.16C3.77247 203.28 3.12254 201.626 3.74901 199.624C4.3726 197.632 6.23831 195.357 10.2476 193.13C13.5312 191.305 16.874 191.265 19.7005 191.946ZM25.6807 195.861C25.6807 195.861 25.6807 195.861 25.6807 195.861L25.7574 195.667L25.7575 195.667L25.6807 195.861ZM22.7834 194.004C19.3935 193.268 16.4149 193.812 14.351 195.601L14.9271 196.265C17.0669 194.411 20.4734 193.995 24.5086 195.407C24.2771 195.529 24.0255 195.676 23.7592 195.84C22.8326 196.413 21.6722 197.239 20.4465 198.152C19.2188 199.067 17.9163 200.077 16.7039 201.021C16.5575 201.135 16.4124 201.248 16.269 201.36C15.2226 202.175 14.2627 202.922 13.4955 203.498C11.8327 204.745 10.0878 205.063 8.59877 204.914C7.09364 204.763 5.87486 204.138 5.27491 203.538C4.62114 202.885 4.06169 201.57 4.58841 199.887C5.11801 198.195 6.76806 196.069 10.6747 193.898C13.7239 192.204 16.8311 192.159 19.4945 192.801C20.7031 193.092 21.816 193.524 22.7834 194.004Z" fill="black"/>
<path d="M26.8144 176.487C25.8206 182.151 29.9189 189.675 32.0923 192.729C30.333 191.618 25.6549 188.439 21.0173 184.608C15.2203 179.818 12.7359 172.735 12.7358 166.7C12.7358 161.663 17.0836 151.29 24.744 151.082C32.4043 150.874 32.0923 159.2 30.1269 163.784C29.0271 166.35 28.0566 169.407 26.8144 176.487Z" fill="#47DB99"/>
<path fill-rule="evenodd" clip-rule="evenodd" d="M31.472 155.532C32.1343 158.279 31.5386 161.606 30.5305 163.957C29.449 166.48 28.4859 169.5 27.2469 176.562C26.771 179.274 27.5123 182.48 28.6741 185.424C29.8284 188.35 31.3728 190.957 32.4409 192.461C38.8021 200.174 37.7605 207.272 36.0997 210.227C35.9807 210.439 35.7126 210.514 35.5008 210.395C35.2891 210.276 35.2139 210.008 35.3329 209.796C36.8019 207.182 37.9029 200.496 31.797 193.062C29.9802 191.91 25.3391 188.749 20.7366 184.946C14.8223 180.06 12.2955 172.843 12.2954 166.699C12.2954 164.085 13.4134 160.152 15.4944 156.845C17.5739 153.541 20.6884 150.752 24.7314 150.642C26.7287 150.587 28.2544 151.09 29.3691 151.992C30.4803 152.891 31.1388 154.15 31.472 155.532ZM29.0785 190.173C26.9069 188.652 24.0943 186.579 21.2968 184.268C15.6169 179.575 13.1751 172.626 13.175 166.699C13.1749 164.277 14.2308 160.505 16.2388 157.314C18.2483 154.121 21.1379 151.619 24.7553 151.521C26.5882 151.471 27.8961 151.931 28.8159 152.676C29.7392 153.422 30.3163 154.492 30.6169 155.738C31.2224 158.249 30.6793 161.378 29.7221 163.61C28.6038 166.219 27.6259 169.312 26.3805 176.41C25.8627 179.362 26.6736 182.75 27.8559 185.747C28.3719 187.055 28.9634 188.3 29.5581 189.418C29.4335 189.302 29.3071 189.186 29.1789 189.07C23.1224 183.598 20.1829 178.315 19.2482 173.615C18.3142 168.918 19.3738 164.762 21.3902 161.517C21.5184 161.311 21.4551 161.04 21.2488 160.911C21.0425 160.783 20.7713 160.846 20.6431 161.053C18.5188 164.471 17.4045 168.853 18.3856 173.787C19.366 178.717 22.4305 184.159 28.5893 189.723C28.7555 189.873 28.9186 190.023 29.0785 190.173Z" fill="black"/>
<path d="M48.2963 193.579C45.3057 194.798 42.1534 198.05 40.9511 199.523C41.5613 189.848 48.4297 184.691 49.9718 183.817C52.1203 182.598 54.6908 183.304 55.2329 186.032C55.8781 189.279 53.4365 191.485 48.2963 193.579Z" fill="#47DB99"/>
<path fill-rule="evenodd" clip-rule="evenodd" d="M53.3579 183.033C54.493 183.456 55.3658 184.448 55.6637 185.947C56.0168 187.724 55.5135 189.23 54.2506 190.543C53.0126 191.831 51.0467 192.934 48.4617 193.987C47.0325 194.569 45.5398 195.65 44.2423 196.787C42.9744 197.897 41.9194 199.038 41.3261 199.759C40.7661 200.976 40.3326 202.505 39.8879 204.074C39.7911 204.416 39.6938 204.759 39.5945 205.102C39.0456 206.995 38.4303 208.887 37.4867 210.066C37.335 210.256 37.0582 210.287 36.8685 210.135C36.6789 209.983 36.6481 209.706 36.7999 209.517C37.6153 208.497 38.191 206.784 38.7497 204.857C38.8447 204.529 38.9391 204.196 39.034 203.861C39.4758 202.3 39.9299 200.697 40.517 199.413C41.1737 189.587 48.1453 184.347 49.7543 183.434C50.9221 182.772 52.2375 182.615 53.3579 183.033ZM43.4921 196.276C45.0753 194 46.5796 192.169 48.9918 190.447C49.1895 190.306 49.2354 190.031 49.0943 189.833C48.9532 189.636 48.6786 189.59 48.4809 189.731C45.366 191.954 43.6943 194.367 41.6294 197.453C42.9866 189.332 48.83 184.97 50.1882 184.2C51.1688 183.643 52.2129 183.544 53.0505 183.857C53.8733 184.164 54.5568 184.889 54.8011 186.118C55.0932 187.588 54.6982 188.809 53.6166 189.934C52.51 191.084 50.6851 192.131 48.1299 193.172C46.5684 193.809 44.9897 194.963 43.6628 196.125C43.6054 196.175 43.5486 196.226 43.4921 196.276Z" fill="black"/>
<path d="M232.623 83.7861H268.244V105.337H232.623V83.7861Z" fill="#E4ECF4"/>
<path d="M213.712 83.7861H222.508V92.5823H213.712V83.7861Z" fill="#E4ECF4"/>
<path d="M209.315 88.1846H218.111V96.9807H209.315V88.1846Z" fill="#47DB99"/>
<path fill-rule="evenodd" clip-rule="evenodd" d="M261.895 87.381C262.096 87.5169 262.149 87.7903 262.013 87.9916L255.629 97.4494L252.575 94.4773L248.308 99.6985L245.225 90.1332L239.615 101.573C239.508 101.791 239.244 101.881 239.026 101.774C238.808 101.667 238.718 101.404 238.825 101.186L245.394 87.7907L248.649 97.8908L252.501 93.1779L255.488 96.0853L261.284 87.4994C261.42 87.2981 261.693 87.2451 261.895 87.381Z" fill="black"/>
<path fill-rule="evenodd" clip-rule="evenodd" d="M46.5977 235.081L3.93945 235.081L3.93945 234.201L46.5977 234.201L46.5977 235.081Z" fill="black"/>
<path d="M218.111 114.133L218.111 115.452L209.315 115.452L209.315 114.133L218.111 114.133Z" fill="#E4ECF4"/>
<path d="M218.111 117.652L218.111 118.972L209.315 118.972L209.315 117.652L218.111 117.652Z" fill="#E4ECF4"/>
<path d="M218.111 121.158L218.111 122.478L209.315 122.478L209.315 121.158L218.111 121.158Z" fill="#E4ECF4"/>
<path d="M218.111 124.484L218.111 125.804L209.315 125.804L209.315 124.484L218.111 124.484Z" fill="#E4ECF4"/>
<path d="M218.111 128.182L218.111 129.501L209.315 129.501L209.315 128.182L218.111 128.182Z" fill="#E4ECF4"/>
<path d="M218.111 131.509L218.111 132.828L209.315 132.828L209.315 131.509L218.111 131.509Z" fill="#E4ECF4"/>
<path d="M218.111 134.836L218.111 136.155L209.315 136.155L209.315 134.836L218.111 134.836Z" fill="#E4ECF4"/>
<path d="M218.111 138.533L218.111 139.853L209.315 139.853L209.315 138.533L218.111 138.533Z" fill="#E4ECF4"/>
<path d="M18.0125 114.133L18.0125 115.452L10.0965 115.452L10.0965 114.133L18.0125 114.133Z" fill="#E4ECF4"/>
<path d="M18.0125 117.652L18.0125 118.972L10.0965 118.972L10.0965 117.652L18.0125 117.652Z" fill="#E4ECF4"/>
<path d="M18.0125 121.158L18.0125 122.478L10.0965 122.478L10.0965 121.158L18.0125 121.158Z" fill="#E4ECF4"/>
<path d="M18.0125 124.484L18.0125 125.804L10.0965 125.804L10.0965 124.484L18.0125 124.484Z" fill="#E4ECF4"/>
<path d="M18.0125 128.182L18.0125 129.501L10.0965 129.501L10.0965 128.182L18.0125 128.182Z" fill="#E4ECF4"/>
<path d="M18.0125 131.509L18.0125 132.828L10.0965 132.828L10.0965 131.509L18.0125 131.509Z" fill="#E4ECF4"/>
<path d="M18.0125 134.836L18.0125 136.155L10.0965 136.155L10.0965 134.836L18.0125 134.836Z" fill="#E4ECF4"/>
<path d="M18.0125 138.533L18.0125 139.853L10.0965 139.853L10.0965 138.533L18.0125 138.533Z" fill="#E4ECF4"/>
<path d="M29.4478 114.133L29.4478 115.452L21.5318 115.452L21.5318 114.133L29.4478 114.133Z" fill="#E4ECF4"/>
<path d="M29.4478 117.652L29.4478 118.972L21.5318 118.972L21.5318 117.652L29.4478 117.652Z" fill="#E4ECF4"/>
<path d="M29.4478 121.158L29.4478 122.478L21.5318 122.478L21.5318 121.158L29.4478 121.158Z" fill="#E4ECF4"/>
<path d="M29.4478 124.484L29.4478 125.804L21.5318 125.804L21.5318 124.484L29.4478 124.484Z" fill="#E4ECF4"/>
<path d="M29.4478 128.182L29.4478 129.501L21.5318 129.501L21.5318 128.182L29.4478 128.182Z" fill="#E4ECF4"/>
<path d="M29.4478 131.509L29.4478 132.828L21.5318 132.828L21.5318 131.509L29.4478 131.509Z" fill="#E4ECF4"/>
<path d="M29.4478 134.836L29.4478 136.155L21.5318 136.155L21.5318 134.836L29.4478 134.836Z" fill="#E4ECF4"/>
<path d="M29.4478 138.533L29.4478 139.853L21.5318 139.853L21.5318 138.533L29.4478 138.533Z" fill="#E4ECF4"/>
<path fill-rule="evenodd" clip-rule="evenodd" d="M92.547 227.057H89.0288C86.6 227.057 84.631 229.026 84.631 231.455V234.094H96.9447V231.455C96.9447 229.026 94.9758 227.057 92.547 227.057ZM89.0288 226.178C86.1142 226.178 83.7515 228.541 83.7515 231.455V234.974H97.8243V231.455C97.8243 228.541 95.4615 226.178 92.547 226.178H89.0288Z" fill="black"/>
<path d="M67.4792 226.805C67.4792 223.505 70.4731 221.014 73.7175 221.615L78.3922 222.481C79.0275 222.599 79.6789 222.599 80.3141 222.481L84.9889 221.615C88.2332 221.014 91.2271 223.505 91.2271 226.805V234.974H67.4792V226.805Z" fill="#FF4B78"/>
<path fill-rule="evenodd" clip-rule="evenodd" d="M90.3476 234.094V226.805C90.3476 224.055 87.8527 221.979 85.149 222.48L80.4743 223.346C79.7332 223.483 78.9732 223.483 78.2321 223.346L73.5573 222.48C70.8537 221.979 68.3588 224.055 68.3588 226.805V234.094H90.3476ZM73.7175 221.615C70.4731 221.014 67.4792 223.505 67.4792 226.805V234.974H91.2271V226.805C91.2271 223.505 88.2332 221.014 84.9889 221.615L80.3141 222.481C79.6789 222.599 79.0275 222.599 78.3922 222.481L73.7175 221.615Z" fill="black"/>
<path fill-rule="evenodd" clip-rule="evenodd" d="M71.8777 234.421V232.002H72.7572V234.421H71.8777Z" fill="black"/>
<path fill-rule="evenodd" clip-rule="evenodd" d="M76.4946 234.421V232.002H77.3742V234.421H76.4946Z" fill="black"/>
<path fill-rule="evenodd" clip-rule="evenodd" d="M80.8923 234.421V232.002H81.7719V234.421H80.8923Z" fill="black"/>
<path fill-rule="evenodd" clip-rule="evenodd" d="M109.486 221.667V219.248H110.366V221.667H109.486Z" fill="black"/>
<path fill-rule="evenodd" clip-rule="evenodd" d="M114.103 221.667V219.248H114.983V221.667H114.103Z" fill="black"/>
<path fill-rule="evenodd" clip-rule="evenodd" d="M118.502 221.667V219.248H119.381V221.667H118.502Z" fill="black"/>
<path fill-rule="evenodd" clip-rule="evenodd" d="M266.755 10.1381C271.467 10.9882 276.428 14.1066 281.635 19.366C284.232 21.9897 286.85 25.1033 289.529 28.3418C289.825 28.6998 290.122 29.0594 290.42 29.4199C292.792 32.2919 295.212 35.2209 297.634 37.8428C300.354 40.7868 303.183 43.4618 306.101 45.304C309.026 47.1508 312.234 48.2806 315.615 47.7927C316.817 47.6192 317.651 46.5041 317.477 45.3021C317.304 44.1 316.189 43.2662 314.987 43.4397C313.017 43.7239 310.874 43.1164 308.449 41.585C306.016 40.0491 303.495 37.7051 300.864 34.858C298.53 32.3322 296.194 29.5034 293.809 26.6174C293.513 26.2583 293.215 25.8983 292.917 25.5379C290.246 22.3097 287.513 19.0531 284.76 16.2717C279.265 10.7211 273.525 6.8902 267.536 5.80988C261.414 4.70552 255.41 6.53982 249.654 11.5235C244.408 16.0662 239.225 23.372 234.254 30.3797C233.918 30.8531 233.583 31.3251 233.25 31.7948C227.83 39.4198 222.697 46.4072 217.703 50.01C212.98 53.418 208.424 53.7278 203.749 51.8727C198.895 49.9461 193.826 45.636 188.548 39.5434C186.445 37.1154 184.346 34.4497 182.209 31.7361C181.67 31.0516 181.129 30.3641 180.584 29.6766C177.909 26.2979 175.167 22.9302 172.397 20.1325C169.649 17.3561 166.717 14.9772 163.62 13.748C160.406 12.4728 157.017 12.4458 153.684 14.37C152.632 14.9772 152.271 16.322 152.878 17.3739C153.486 18.4257 154.83 18.7863 155.882 18.1791C157.899 17.0147 159.861 16.9878 161.998 17.836C164.251 18.7302 166.67 20.5981 169.272 23.2267C171.853 25.834 174.462 29.0296 177.137 32.4072C177.663 33.071 178.191 33.7425 178.722 34.4169C180.866 37.1388 183.047 39.9092 185.224 42.4231C190.648 48.6849 196.281 53.6405 202.127 55.9607C208.154 58.3525 214.299 57.8902 220.277 53.5767C225.985 49.458 231.552 41.7746 236.834 34.3428C237.126 33.9325 237.417 33.5228 237.707 33.1141C242.815 25.9176 247.707 19.0274 252.533 14.8485C257.478 10.5664 262.176 9.31212 266.755 10.1381Z" fill="#47DB99"/>
<path fill-rule="evenodd" clip-rule="evenodd" d="M289.741 35.5675C298.13 30.1482 306.392 30.1295 310.887 30.1295H315.301C316.516 30.1295 317.5 29.145 317.5 27.9305C317.5 26.716 316.516 25.7314 315.301 25.7314L310.845 25.7314C306.229 25.7314 296.862 25.7313 287.355 31.8731C284.989 33.4014 282.667 35.2886 280.434 37.1621C279.953 37.5655 279.477 37.9675 279.006 38.3662C277.251 39.8489 275.55 41.2864 273.842 42.5835C269.4 45.9565 265.683 47.7476 262.258 47.01C260.499 46.6312 258.58 45.5428 256.445 43.881C254.458 42.3352 252.462 40.4387 250.367 38.4489C250.223 38.3116 250.078 38.1738 249.932 38.0357C247.723 35.9383 245.397 33.7569 243.032 32.0447C240.681 30.3422 238.076 28.9403 235.277 28.639C232.43 28.3324 229.731 29.1945 227.255 30.6023C224.788 32.0044 222.408 34.0233 220.13 36.2479C217.888 38.4359 215.658 40.9117 213.481 43.3278L213.356 43.4659C211.119 45.949 208.937 48.365 206.759 50.4754C197.991 58.9721 190.105 62.0356 182.406 58.7196C178.345 56.9708 174.148 53.3783 170.306 49.3338C166.796 45.6399 163.74 41.7403 161.489 38.8681C161.299 38.6259 161.115 38.391 160.936 38.1641L156.532 32.3869C155.795 31.4212 154.416 31.2352 153.45 31.9716C152.484 32.708 152.298 34.0878 153.035 35.0536L157.458 40.8561L157.468 40.8686C157.65 41.1001 157.839 41.3417 158.036 41.5926C160.278 44.4538 163.457 48.5098 167.117 52.3631C171.067 56.5208 175.765 60.648 180.666 62.7591C190.892 67.1628 200.663 62.5066 209.819 53.6339C212.123 51.4019 214.405 48.8725 216.623 46.4101L216.699 46.3259C218.912 43.8699 221.062 41.4836 223.202 39.3949C225.371 37.2771 227.438 35.5568 229.428 34.4259C231.407 33.3006 233.173 32.8359 234.807 33.0118C236.489 33.1929 238.348 34.0828 240.453 35.607C242.545 37.1214 244.667 39.1014 246.905 41.2257C247.062 41.3749 247.22 41.5249 247.378 41.6754C249.43 43.6251 251.578 45.6667 253.744 47.352C256.065 49.158 258.61 50.7233 261.332 51.3095C266.869 52.5019 272.048 49.4681 276.501 46.0863C278.31 44.7127 280.126 43.1777 281.892 41.6853C282.352 41.2965 282.809 40.9106 283.261 40.5313C285.484 38.6655 287.626 36.9341 289.741 35.5675Z" fill="#2C73FB"/>
</svg>
